<?xml version="1.0" standalone="no"?>
<!DOCTYPE svg PUBLIC "-//W3C//DTD SVG 20010904//EN"
 "http://www.w3.org/TR/2001/REC-SVG-20010904/DTD/svg10.dtd">
<svg version="1.0" xmlns="http://www.w3.org/2000/svg"
 width="779.000000pt" height="779.000000pt" viewBox="0 0 779.000000 779.000000"
 preserveAspectRatio="xMidYMid meet">
<metadata>
Created by potrace 1.11, written by Peter Selinger 2001-2013
</metadata>
<g transform="translate(0.000000,779.000000) scale(0.100000,-0.100000)"
fill="#000000" stroke="none">
<path d="M4370 6733 c0 -27 -10 -35 -27 -22 -10 9 -13 8 -13 -4 0 -9 -9 -32
-20 -52 -11 -19 -16 -35 -12 -35 4 0 -1 -5 -11 -11 -9 -6 -15 -14 -12 -19 9
-14 -25 -5 -46 13 -10 9 -23 17 -28 17 -5 0 -11 7 -15 15 -3 9 -12 12 -22 8
-12 -4 -15 -3 -10 5 5 8 0 12 -13 12 -12 0 -21 5 -21 10 0 6 -9 10 -19 10 -11
0 -23 5 -26 10 -3 6 -15 10 -26 10 -10 0 -19 6 -19 13 0 8 -3 8 -8 2 -10 -15
-114 -16 -105 -1 4 6 -2 4 -12 -4 -12 -10 -16 -10 -11 -2 6 10 -2 12 -33 11
-23 -2 -41 -6 -41 -9 0 -3 -17 -7 -37 -8 -21 -2 -47 -11 -58 -21 -33 -29 -95
-49 -95 -30 0 5 -9 9 -20 9 -11 0 -20 5 -20 10 0 6 -9 10 -19 10 -11 0 -22 4
-25 8 -6 10 -32 8 -58 -3 -24 -10 -32 -39 -34 -120 0 -38 -3 -77 -5 -85 -5
-19 -25 -40 -38 -40 -5 0 -13 -9 -16 -20 -3 -11 -10 -20 -14 -20 -5 0 -14 -13
-21 -30 -7 -16 -17 -30 -22 -30 -5 0 -6 -4 -3 -10 3 -5 2 -10 -4 -10 -5 0 -13
-9 -16 -20 -3 -11 -13 -20 -21 -20 -8 0 -13 -4 -10 -8 3 -5 -8 -9 -24 -10 -16
0 -32 4 -35 9 -4 5 -22 9 -41 9 -20 0 -34 5 -34 13 0 7 -3 8 -8 2 -4 -6 -20
-12 -37 -13 -16 -2 -34 -8 -40 -13 -5 -5 -17 -9 -27 -9 -10 0 -18 -6 -18 -12
0 -9 -4 -8 -10 2 -6 10 -10 11 -10 3 0 -8 -13 -13 -30 -13 -16 0 -30 -4 -30
-10 0 -5 -11 -10 -25 -10 -14 0 -25 -4 -25 -10 0 -5 -8 -10 -18 -10 -11 0 -27
-9 -37 -20 -10 -11 -24 -20 -32 -20 -8 0 -11 -4 -8 -10 3 -5 2 -10 -3 -10 -12
0 -82 -71 -82 -83 0 -4 -6 -15 -12 -23 -48 -57 -72 -67 -93 -37 -17 23 -1 56
34 74 41 22 57 39 42 48 -7 4 -11 12 -10 17 5 26 -4 30 -66 26 -62 -4 -64 -3
-70 21 -6 20 -12 24 -32 21 -15 -3 -22 -1 -18 6 3 5 -1 10 -10 10 -9 0 -13 5
-10 10 3 6 1 10 -4 10 -6 0 -11 11 -11 25 0 14 -4 25 -10 25 -5 0 -10 6 -10
14 0 8 -4 16 -9 18 -5 2 -11 10 -13 18 -2 8 -11 22 -20 31 -10 9 -15 18 -13
21 3 3 -2 11 -12 19 -11 9 -14 10 -9 2 4 -8 2 -13 -4 -13 -6 0 -8 -4 -5 -10 3
-5 1 -10 -4 -10 -6 0 -11 -7 -11 -16 0 -24 -37 -67 -45 -53 -6 8 -10 7 -16 -2
-7 -12 -9 -12 -9 0 0 9 -6 7 -19 -7 -10 -12 -26 -22 -35 -22 -14 0 -21 -11
-17 -32 0 -5 -3 -8 -8 -8 -5 0 -11 -13 -14 -30 -8 -37 -31 -39 -71 -5 -16 14
-26 25 -22 25 4 0 -4 11 -18 25 -14 14 -30 25 -36 25 -6 0 -8 5 -5 10 3 6 1
10 -5 10 -15 0 -41 26 -33 34 4 3 -4 6 -16 6 -12 0 -20 4 -16 9 3 5 -4 16 -16
24 -11 8 -16 16 -11 18 6 2 -2 13 -16 23 -15 11 -22 13 -15 6 6 -7 9 -19 6
-27 -3 -8 3 -23 13 -33 34 -34 44 -49 44 -65 0 -8 4 -15 9 -15 5 0 13 -9 16
-20 3 -11 14 -20 22 -20 9 0 14 -3 10 -6 -3 -3 -1 -11 4 -18 47 -56 59 -73 59
-83 0 -15 -40 -44 -52 -37 -4 3 -8 0 -8 -5 0 -6 -11 -11 -24 -11 -13 0 -26 -5
-28 -11 -2 -7 -25 -12 -51 -12 -36 0 -47 -3 -43 -13 3 -8 3 -14 0 -14 -2 0 -9
11 -14 25 -7 18 -17 25 -35 25 -14 0 -25 5 -25 10 0 6 -12 10 -27 10 -22 0
-25 2 -13 10 11 7 7 10 -17 10 -17 0 -35 5 -38 10 -9 15 -36 12 -58 -7 -12
-11 -17 -12 -12 -4 6 11 3 13 -13 9 -15 -4 -20 -2 -16 5 5 8 2 7 -7 0 -14 -14
-33 -18 -25 -5 4 7 -17 12 -61 15 -7 0 -13 4 -13 9 0 4 -7 8 -16 8 -10 0 -14
6 -10 15 3 8 1 25 -4 37 -5 13 -9 19 -9 14 -1 -5 -8 -3 -16 4 -12 10 -19 10
-27 2 -8 -8 -16 -7 -31 1 -15 9 -21 9 -24 0 -3 -7 -9 -13 -14 -13 -6 0 -7 6
-3 13 5 8 2 7 -9 -2 -14 -11 -15 -16 -5 -29 11 -13 11 -14 -2 -7 -22 14 -40
15 -37 2 4 -21 46 -57 67 -57 11 0 20 -5 20 -10 0 -6 6 -10 13 -9 28 3 58 -2
53 -9 -3 -5 16 -9 42 -11 25 -1 53 -8 61 -14 12 -9 13 -9 7 1 -4 6 -3 12 1 12
5 0 15 -6 22 -12 11 -10 13 -10 7 0 -4 6 -2 12 3 12 6 0 11 -4 11 -9 0 -5 16
-9 36 -9 20 0 39 -4 43 -8 3 -5 17 -11 31 -12 14 -2 26 -8 28 -13 2 -5 15 -9
28 -9 14 0 37 -11 51 -24 15 -14 31 -22 37 -19 6 3 8 3 4 -1 -9 -11 37 -56 57
-56 8 0 15 -4 15 -10 0 -5 11 -10 25 -10 14 0 25 -4 25 -8 0 -5 10 -14 23 -21
20 -10 23 -19 21 -62 -2 -27 2 -49 7 -49 6 0 7 -4 4 -10 -3 -5 -22 -10 -41
-10 -26 0 -33 -3 -28 -12 5 -9 2 -9 -9 1 -11 9 -17 10 -17 2 0 -6 -12 -11 -26
-11 -14 0 -23 -4 -19 -10 3 -5 -3 -10 -14 -10 -11 0 -23 -4 -26 -10 -3 -5 -26
-10 -51 -10 -25 0 -43 4 -40 8 3 5 -1 9 -9 9 -8 0 -13 -2 -10 -5 2 -3 -10 -18
-26 -33 -17 -16 -28 -29 -24 -29 3 0 -1 -7 -9 -16 -9 -8 -14 -20 -11 -25 4 -5
2 -9 -3 -9 -7 0 -6 -13 0 -34 13 -41 3 -86 -18 -86 -12 0 -15 -7 -12 -25 3
-13 0 -26 -5 -28 -6 -2 -3 -6 6 -10 10 -4 17 -1 18 6 0 7 4 3 9 -8 13 -31 12
-75 -2 -75 -9 0 -8 -4 2 -11 12 -8 10 -9 -10 -7 -14 2 -23 7 -22 12 2 5 -2 13
-10 17 -10 7 -10 9 0 9 6 0 12 12 12 28 l0 27 -20 -25 c-11 -14 -20 -40 -20
-57 0 -31 -2 -33 -36 -33 -34 0 -70 21 -57 34 4 3 2 6 -3 6 -13 0 -10 40 4 67
7 12 13 33 14 47 2 20 8 26 26 26 14 0 21 4 16 11 -4 7 1 7 16 -1 19 -10 21
-9 18 7 -2 14 -14 19 -53 21 -27 2 -47 0 -43 -4 4 -3 1 -13 -7 -21 -17 -17
-20 -83 -4 -83 6 0 4 -7 -5 -15 -8 -8 -20 -15 -26 -15 -6 0 -9 -4 -6 -8 2 -4
-9 -9 -27 -10 -17 -2 -35 -7 -41 -11 -11 -9 -56 -14 -107 -12 -14 1 -35 10
-47 21 -22 21 -109 30 -97 10 4 -6 -7 -10 -27 -10 -25 0 -29 -3 -18 -10 13 -8
13 -10 -1 -10 -28 0 -44 -27 -28 -47 11 -15 11 -16 -1 -5 -20 18 -29 15 -25
-8 2 -11 0 -20 -4 -20 -5 0 -7 -14 -5 -31 2 -16 0 -27 -5 -24 -12 7 -25 -50
-22 -92 2 -29 0 -33 -23 -33 -16 0 -27 7 -31 21 -5 15 -10 18 -18 10 -6 -6
-21 -11 -34 -11 -13 0 -23 -4 -23 -10 0 -21 -51 -9 -85 21 -20 18 -33 34 -31
37 3 3 -4 13 -16 23 -11 11 -18 19 -14 19 4 0 1 7 -8 15 -8 8 -19 15 -25 15
-5 0 -13 9 -16 20 -3 11 -11 20 -16 20 -5 0 -19 9 -31 20 -12 11 -30 20 -40
20 -10 0 -18 5 -18 10 0 6 -31 10 -72 10 -57 0 -79 -5 -98 -20 -14 -11 -29
-20 -33 -20 -14 0 -54 -45 -73 -81 -26 -50 -38 -188 -22 -244 14 -45 50 -115
59 -115 6 0 7 -4 4 -10 -3 -6 0 -10 7 -10 7 0 19 -9 26 -20 7 -11 19 -20 28
-20 8 0 12 -4 9 -10 -3 -5 3 -10 13 -10 20 0 36 -23 25 -34 -4 -3 -17 -6 -30
-6 -14 0 -21 -4 -18 -10 3 -5 -3 -10 -14 -10 -12 0 -21 -4 -21 -10 0 -5 -5
-10 -11 -10 -11 0 -38 -24 -42 -37 -1 -4 -6 -7 -12 -5 -5 2 0 -6 12 -17 12
-12 28 -21 34 -21 7 0 10 -3 6 -6 -14 -14 24 -33 71 -36 27 -2 48 -6 45 -10
-2 -5 25 -8 61 -8 37 0 66 4 66 10 0 6 4 10 9 10 5 0 23 14 39 30 30 29 62 40
62 20 0 -5 8 -10 18 -10 10 0 24 -9 32 -20 8 -11 20 -20 27 -20 7 0 13 -4 13
-10 0 -5 11 -10 25 -10 14 0 25 -4 25 -10 0 -6 37 -10 90 -10 50 0 90 4 90 8
0 5 11 14 24 20 19 9 27 7 40 -6 14 -17 15 -39 2 -99 -4 -18 0 -23 15 -23 11
0 17 -4 14 -10 -3 -5 1 -10 9 -10 26 0 18 -19 -24 -61 -22 -22 -37 -45 -34
-51 4 -7 2 -8 -5 -4 -6 4 -14 0 -17 -8 -3 -9 -17 -16 -31 -16 -16 0 -22 4 -17
12 5 7 0 9 -14 6 -12 -4 -20 -1 -19 4 1 6 -5 13 -13 16 -8 2 -12 1 -8 -3 4 -5
2 -15 -5 -23 -8 -11 -8 -14 0 -9 6 4 14 3 18 -3 4 -6 12 -7 18 -3 9 5 9 3 1
-8 -6 -8 -12 -57 -13 -109 -1 -52 -6 -99 -10 -103 -10 -10 -35 -15 -79 -16
-22 -1 -31 -5 -26 -13 5 -7 3 -8 -5 -3 -16 9 -53 -29 -41 -41 9 -9 -15 -69
-37 -92 -7 -8 -11 -18 -8 -23 4 -5 1 -9 -5 -9 -6 0 -8 -5 -4 -12 5 -8 2 -9 -9
-5 -10 4 -24 10 -32 13 -9 4 -15 1 -15 -7 0 -7 3 -9 6 -6 4 3 15 2 25 -3 16
-9 16 -12 1 -42 -9 -18 -22 -39 -29 -46 -7 -7 -13 -20 -13 -28 0 -8 -9 -34
-20 -56 -11 -23 -20 -48 -20 -55 0 -7 -7 -13 -16 -13 -8 0 -12 -4 -9 -10 3 -5
1 -10 -4 -10 -23 0 -9 -17 24 -30 34 -13 55 -42 36 -48 -6 -2 -9 -7 -7 -11 9
-14 -35 -4 -55 12 -10 9 -30 17 -44 17 -29 0 -32 8 -7 26 11 9 13 13 4 14 -7
0 -10 5 -7 10 3 6 1 10 -6 10 -9 0 -9 3 0 14 10 12 9 14 -7 10 -10 -3 -26 -19
-36 -35 -15 -26 -16 -29 -1 -29 9 0 13 -5 10 -10 -3 -5 1 -10 9 -10 8 0 18 -9
21 -20 3 -11 10 -20 14 -20 5 0 14 -13 21 -30 7 -16 16 -30 20 -30 5 0 10 -8
12 -17 5 -23 -35 -63 -62 -63 -12 0 -18 -4 -15 -10 3 -5 -3 -10 -14 -10 -12 0
-21 -2 -21 -5 0 -13 24 -55 32 -55 5 0 6 -4 3 -10 -3 -5 1 -10 10 -10 9 0 13
-5 10 -10 -3 -5 3 -10 15 -10 12 0 18 -4 15 -10 -3 -6 -2 -10 3 -10 6 0 12 -6
15 -14 4 -10 0 -12 -14 -9 -10 3 -19 0 -19 -6 0 -6 -9 -11 -21 -11 -11 0 -18
-4 -15 -9 3 -5 -3 -11 -14 -14 -37 -10 -20 -22 28 -21 41 0 51 -4 78 -34 18
-18 34 -45 37 -58 4 -21 0 -24 -24 -24 -15 0 -29 5 -31 11 -2 5 -18 11 -35 11
-18 1 -30 5 -27 10 3 4 -4 8 -15 8 -25 0 -44 -34 -35 -62 4 -14 2 -18 -5 -14
-7 5 -9 1 -5 -8 3 -9 10 -13 15 -10 5 3 9 -2 9 -10 0 -9 9 -16 20 -16 11 0 20
-4 20 -10 0 -5 11 -10 24 -10 13 0 27 -8 30 -17 4 -10 4 -14 0 -11 -9 10 -37
-20 -29 -32 4 -6 -1 -7 -11 -3 -12 4 -15 3 -10 -5 4 -7 1 -12 -7 -12 -13 0
-64 -78 -59 -92 1 -5 -2 -8 -8 -8 -16 0 -51 -33 -67 -64 -15 -29 -15 -31 16
-58 17 -15 32 -33 33 -40 5 -21 51 -64 56 -50 2 7 7 10 11 7 12 -7 56 47 56
67 0 19 -38 58 -55 58 -6 0 -8 4 -5 10 3 6 -1 10 -9 10 -18 0 -29 31 -19 56 4
10 19 31 35 46 19 18 24 28 16 31 -8 3 -5 6 5 6 21 1 37 15 56 53 20 39 86 70
118 55 16 -7 23 -17 20 -29 -5 -16 2 -18 50 -18 31 0 52 -4 48 -9 -3 -5 -1
-12 4 -15 5 -4 12 2 15 11 2 10 4 5 3 -12 -1 -19 3 -29 11 -28 17 4 15 -2 -5
-18 -14 -12 -16 -12 -8 0 5 10 4 12 -3 7 -7 -4 -12 -14 -12 -22 0 -8 -4 -14
-8 -14 -5 0 -7 -13 -4 -30 2 -17 10 -30 18 -30 8 0 13 -3 13 -7 -3 -21 2 -33
16 -33 8 0 15 -9 15 -20 0 -11 7 -20 16 -20 8 0 12 -4 9 -10 -3 -5 -1 -10 5
-10 6 0 8 -4 5 -10 -3 -5 2 -10 11 -10 10 0 14 -3 11 -7 -4 -3 2 -12 12 -20
11 -7 19 -22 18 -33 -1 -16 -8 -20 -35 -20 -24 0 -31 -4 -26 -12 5 -10 4 -10
-6 -1 -10 9 -18 9 -34 1 -35 -19 -47 -36 -49 -73 -1 -19 -4 -35 -7 -35 -3 0
-7 -16 -8 -36 -2 -20 -9 -43 -17 -51 -9 -8 -13 -19 -10 -24 4 -5 -1 -9 -9 -9
-9 0 -14 -8 -13 -20 1 -11 5 -20 10 -20 4 0 5 -5 2 -10 -3 -5 -1 -10 5 -10 6
0 8 -4 5 -10 -3 -6 -1 -10 5 -10 6 0 9 -4 6 -8 -2 -4 4 -9 15 -9 20 -2 71 41
61 51 -3 3 0 6 7 6 16 0 42 26 34 33 -3 3 3 5 14 4 12 0 20 -9 21 -25 1 -13 5
-29 9 -35 4 -7 8 -19 8 -27 4 -44 6 -50 21 -50 8 0 13 -4 10 -9 -3 -4 2 -7 12
-6 31 4 62 17 62 26 0 5 10 9 22 9 12 0 18 3 15 7 -4 3 0 17 8 30 14 21 18 83
5 83 -3 0 -7 11 -8 26 -2 32 -16 57 -47 88 -26 26 -35 86 -14 86 22 0 54 -47
50 -72 0 -5 24 -8 54 -8 30 0 55 -3 55 -8 0 -4 9 -13 21 -20 12 -8 18 -9 15
-3 -4 6 7 9 28 8 29 -2 35 -6 38 -29 3 -15 1 -29 -4 -30 -5 -2 -11 -29 -12
-61 -3 -42 0 -57 9 -57 8 0 17 -9 20 -20 5 -15 15 -20 41 -20 67 0 104 68 81
151 -5 20 -1 33 14 50 11 13 18 18 14 12 -4 -8 0 -13 9 -13 8 0 17 -8 20 -18
3 -10 15 -18 25 -19 16 -1 19 4 16 26 -4 37 26 58 48 33 8 -9 18 -27 21 -39 4
-13 14 -23 22 -23 8 0 14 -4 14 -10 0 -5 9 -10 19 -10 11 0 23 -4 26 -10 3 -5
19 -10 35 -10 16 0 32 -4 35 -10 3 -5 21 -10 40 -10 19 0 37 5 40 10 3 6 15
10 26 10 10 0 19 5 19 10 0 6 14 10 30 10 17 0 30 5 30 10 0 6 7 10 16 10 8 0
12 5 9 10 -3 6 -2 10 3 10 5 0 29 18 52 39 24 22 55 45 69 53 33 17 51 34 51
48 0 6 5 8 10 5 6 -3 11 3 11 14 1 12 2 24 3 29 1 4 5 23 9 44 9 43 28 53 50
27 21 -24 45 -26 26 -2 -10 11 -10 14 -1 9 6 -4 12 -2 12 3 0 6 18 11 41 11
24 0 38 -4 34 -10 -3 -5 3 -10 15 -10 12 0 18 -4 15 -10 -3 -6 -1 -10 4 -10 6
0 11 9 11 20 0 13 7 20 19 20 16 0 19 8 18 63 0 34 3 74 6 89 l7 28 43 -22
c59 -31 70 -67 49 -157 -20 -86 -26 -315 -9 -333 6 -8 13 -18 14 -23 0 -6 4
-26 7 -45 3 -19 10 -36 16 -38 5 -2 8 -8 4 -13 -3 -5 4 -9 15 -9 12 0 21 -4
21 -10 0 -5 7 -10 16 -10 8 0 12 -4 9 -10 -11 -18 21 -11 43 10 12 11 26 20
32 20 6 0 13 7 16 15 4 8 11 12 16 9 6 -4 13 -1 17 5 4 6 24 12 44 13 20 1 37
5 37 10 0 4 7 8 16 8 9 0 12 5 8 12 -4 7 -3 8 4 4 10 -6 78 47 71 56 -2 2 4
21 13 43 9 22 16 44 16 49 0 5 5 12 10 15 9 5 32 60 46 106 2 6 6 17 9 25 3 8
8 27 11 43 6 26 36 39 36 16 0 -6 6 -25 14 -42 13 -30 45 -146 48 -174 1 -7 5
-13 10 -13 4 0 8 -7 8 -16 0 -8 17 -32 38 -52 21 -21 42 -50 46 -65 3 -15 11
-27 17 -27 6 0 7 -4 4 -10 -3 -5 -1 -10 5 -10 6 0 8 -4 5 -10 -3 -6 0 -10 8
-10 16 0 37 -43 42 -85 1 -15 9 -31 16 -36 8 -5 10 -9 6 -9 -5 0 9 -18 31 -39
22 -22 37 -42 34 -45 -3 -3 2 -6 10 -6 9 0 18 -6 21 -12 3 -10 7 -10 19 0 9 7
30 11 47 10 29 -2 38 -16 32 -51 -1 -5 3 -6 9 -2 6 3 10 -3 10 -15 0 -11 -7
-23 -15 -26 -8 -4 -13 -9 -10 -13 2 -4 -2 -8 -10 -8 -10 0 -12 4 -5 12 5 7 6
16 2 20 -4 5 -2 5 5 1 6 -3 15 -1 19 6 4 7 4 10 -1 6 -4 -4 -15 -2 -23 5 -13
9 -14 9 -8 0 4 -7 3 -13 -1 -13 -5 0 -9 -9 -10 -20 -1 -14 7 -24 23 -30 31
-12 37 -12 30 -1 -4 5 5 4 18 -2 16 -8 21 -14 13 -19 -7 -5 -1 -8 15 -8 33 0
42 -13 40 -62 -1 -21 3 -38 9 -38 5 0 7 -4 4 -10 -4 -6 6 -10 24 -10 20 0 34
7 41 20 6 11 16 20 23 20 7 0 12 17 13 44 0 24 7 50 15 58 18 16 64 24 55 9
-4 -6 1 -11 11 -11 22 -1 55 -24 46 -33 -3 -4 1 -7 9 -7 9 0 19 -6 21 -12 5
-12 11 17 8 35 -1 5 3 6 8 3 5 -4 11 -1 13 4 2 6 30 11 62 11 38 1 54 4 45 10
-11 7 -10 9 4 9 10 0 15 5 12 10 -3 5 3 10 14 10 14 0 21 6 21 20 0 11 4 28 9
38 17 33 29 102 18 102 -6 0 -8 3 -4 6 14 14 -25 35 -61 34 -61 -3 -63 -2 -58
27 2 16 5 34 5 41 1 6 8 12 16 12 8 0 15 6 15 13 0 18 24 67 33 67 4 0 7 18 7
40 0 22 -5 40 -11 40 -5 0 -8 4 -4 9 3 5 0 15 -7 23 -14 14 -19 68 -6 68 4 0
7 3 6 8 -3 15 40 152 49 152 2 0 11 -6 18 -14 11 -10 11 -16 2 -26 -10 -10 -8
-12 8 -6 19 6 19 5 3 -8 -20 -15 -24 -31 -5 -20 9 6 9 4 -1 -8 -10 -13 -9 -16
8 -21 15 -4 20 0 20 14 0 11 7 22 15 25 8 4 12 10 9 15 -3 5 4 9 15 9 12 0 21
-4 21 -10 0 -5 9 -10 20 -10 11 0 19 -6 17 -12 -2 -12 4 -12 47 -5 4 1 10 -6
11 -15 4 -21 50 -68 67 -68 10 0 10 -2 0 -9 -11 -6 -10 -9 5 -13 44 -10 51 0
55 76 4 90 1 106 -18 106 -9 0 -12 5 -8 13 4 6 -1 5 -12 -4 -10 -9 -25 -14
-31 -12 -8 3 -13 -3 -13 -14 0 -10 -9 -24 -20 -31 -18 -11 -20 -10 -18 15 1
16 7 31 13 35 7 5 7 8 0 8 -19 0 -9 50 13 73 12 12 22 16 22 9 0 -7 7 -12 15
-12 8 0 15 -4 15 -10 0 -5 9 -10 21 -10 11 0 17 -4 14 -10 -3 -6 0 -10 8 -10
7 0 22 -8 33 -17 28 -25 61 -43 79 -43 8 0 15 -4 15 -10 0 -5 9 -10 21 -10 11
0 17 -5 14 -10 -3 -5 3 -10 14 -10 12 0 21 -4 21 -10 0 -5 7 -10 16 -10 8 0
12 -4 9 -10 -3 -6 -1 -10 5 -10 15 0 60 -46 53 -54 -4 -3 8 -6 25 -6 18 0 32
-4 32 -10 0 -5 7 -10 15 -10 8 0 15 -3 15 -8 0 -4 12 -20 26 -35 29 -32 39
-77 17 -77 -8 0 -11 -5 -8 -10 4 -6 3 -10 -2 -9 -18 3 -29 -2 -55 -25 -31 -26
-36 -59 -14 -82 16 -15 41 -19 31 -5 -3 5 3 12 13 15 10 3 24 22 31 41 7 19
17 35 22 35 6 0 7 5 4 10 -3 6 3 10 14 10 11 0 22 9 26 20 3 11 14 20 24 20
13 0 18 9 19 34 2 49 5 59 25 77 9 9 17 21 17 26 0 5 9 19 20 31 12 12 18 22
15 22 -3 0 4 11 17 24 36 36 68 76 63 76 -3 0 -1 6 5 13 39 46 50 62 55 78 4
11 9 19 13 19 4 0 8 18 9 41 1 50 21 99 39 99 8 0 14 -4 14 -10 0 -5 7 -10 15
-10 8 0 15 -7 15 -15 0 -8 4 -15 8 -15 12 0 31 -59 25 -78 -3 -11 -2 -13 4 -6
11 15 98 24 115 12 10 -8 10 -11 0 -15 -6 -2 -10 -9 -6 -14 7 -12 -19 -7 -29
6 -5 6 -6 -1 -3 -15 4 -22 4 -23 -8 -8 -7 10 -16 14 -20 10 -4 -4 -12 -7 -18
-7 -6 0 -12 -8 -14 -17 -1 -10 1 -18 6 -18 8 0 23 -38 21 -52 -1 -5 4 -8 11
-8 6 0 9 -3 5 -6 -9 -10 19 -34 40 -34 15 0 16 -2 3 -10 -8 -5 -10 -10 -3 -10
7 0 9 -9 5 -22 l-5 -22 -10 22 c-6 13 -19 22 -32 22 -25 0 -75 22 -75 33 0 4
-9 7 -20 7 -11 0 -20 5 -20 11 0 8 -4 8 -14 0 -12 -10 -14 -8 -10 11 4 21 4
21 -5 3 -13 -27 -13 -65 0 -65 5 0 7 -4 4 -10 -3 -5 2 -10 11 -10 10 0 14 -3
11 -6 -4 -4 3 -15 15 -25 11 -11 18 -19 14 -19 -4 0 3 -11 16 -24 13 -14 34
-38 48 -55 14 -17 31 -31 38 -31 6 0 12 -4 12 -10 0 -5 9 -10 20 -10 11 0 20
-4 20 -10 0 -5 6 -10 13 -10 7 0 19 -9 27 -20 8 -11 20 -20 27 -20 7 0 13 -5
13 -11 0 -6 7 -9 15 -5 9 3 15 0 15 -9 0 -8 9 -15 20 -15 24 0 71 43 68 62 -3
15 -44 38 -66 38 -8 0 -13 3 -9 6 3 3 -5 17 -19 31 -29 29 -31 50 -6 72 11 9
19 24 19 34 0 19 -17 24 -17 5 0 -9 -4 -8 -10 2 -6 10 -10 11 -10 3 0 -7 -10
-13 -22 -13 -19 0 -20 -2 -8 -10 12 -8 11 -10 -6 -10 -11 0 -29 10 -40 22 -17
19 -17 21 -1 15 15 -6 16 -4 6 14 -6 12 -7 19 -1 15 13 -7 23 19 16 39 -4 8
-2 15 3 15 6 0 15 10 21 23 6 12 11 16 11 10 1 -7 10 -13 22 -13 11 0 18 -3
16 -7 -3 -5 1 -14 9 -21 11 -10 14 -10 14 0 0 9 3 9 10 -2 6 -10 10 -11 10 -2
0 6 9 12 21 12 11 0 17 5 14 10 -3 6 3 10 14 10 12 0 21 5 21 10 0 6 10 10 23
10 12 0 29 9 37 20 14 20 57 29 45 10 -3 -5 3 -10 14 -10 11 0 23 -4 26 -10 3
-5 22 -10 41 -10 21 0 33 -4 29 -10 -3 -5 0 -10 9 -10 13 0 15 -21 5 -59 -3
-8 6 -15 21 -17 18 -3 21 -2 10 5 -8 5 -18 7 -24 4 -5 -3 -6 -1 -2 6 4 6 11 9
16 6 4 -3 11 2 14 11 3 8 2 12 -4 9 -6 -3 -10 1 -10 10 0 9 5 13 10 10 6 -4
10 -3 9 2 -3 19 2 33 13 33 12 0 68 59 68 72 0 14 51 9 66 -6 15 -16 15 -37 0
-48 -12 -8 -17 -38 -6 -38 5 0 11 6 13 13 4 9 6 9 6 0 1 -7 6 -13 12 -13 5 0
7 6 4 13 -4 6 2 2 13 -11 11 -12 23 -22 27 -22 4 0 20 -14 36 -31 29 -32 41
-89 17 -89 -6 0 -8 -3 -5 -7 4 -3 2 -12 -4 -20 -9 -10 -8 -17 2 -30 12 -15 12
-16 -1 -8 -8 4 -5 -2 7 -14 27 -26 41 -26 73 0 14 11 19 17 11 13 -9 -5 -8 2
5 19 23 32 57 34 86 7 12 -11 30 -20 40 -20 12 0 16 -4 12 -11 -7 -11 28 -9
81 4 11 3 42 6 68 6 36 1 46 4 41 14 -5 7 0 6 11 -3 11 -9 16 -10 11 -2 -5 8
2 12 24 12 18 0 29 -4 25 -10 -3 -5 -1 -10 4 -10 6 0 11 5 11 10 0 6 6 5 14
-2 10 -9 11 -15 2 -21 -7 -5 -3 -7 9 -5 15 2 20 -2 19 -20 -1 -21 0 -22 15 -6
12 12 13 18 3 21 -6 3 -9 10 -6 15 4 7 2 8 -5 4 -7 -4 -15 2 -20 16 -10 29 11
46 63 50 20 1 36 6 36 10 0 4 7 8 16 8 10 0 14 7 13 23 -2 12 0 28 4 34 5 8 3
13 -3 13 -6 0 -1 11 12 24 13 13 30 33 38 46 8 12 20 28 26 34 16 17 46 76 38
76 -4 0 -1 7 6 15 14 17 14 155 -1 155 -5 0 -5 10 -2 23 12 48 0 137 -18 137
-5 0 -9 6 -9 13 0 24 -25 66 -42 71 -10 2 -18 11 -18 20 0 9 -5 16 -11 16 -5
0 -7 5 -4 10 3 6 1 10 -5 10 -14 0 -34 20 -43 43 -3 9 -13 17 -22 17 -8 0 -15
5 -15 10 0 6 -7 10 -15 10 -8 0 -15 5 -15 10 0 6 -12 10 -26 10 -14 0 -23 4
-19 10 3 6 -2 10 -13 10 -10 0 -28 9 -39 19 -16 15 -23 17 -33 8 -10 -9 -11
-9 -6 1 4 6 2 12 -3 12 -6 0 -11 -4 -11 -10 0 -5 -7 -10 -16 -10 -9 0 -12 5
-8 13 5 7 0 6 -11 -3 -11 -9 -16 -10 -11 -2 5 8 -1 12 -19 12 -15 0 -24 4 -20
10 3 6 -3 10 -14 10 -12 0 -21 5 -21 10 0 6 -5 10 -10 10 -17 0 -67 54 -63 68
5 14 73 17 73 2 0 -5 10 -10 23 -10 13 0 28 -5 34 -11 9 -9 16 -8 28 5 9 9 20
14 25 11 5 -3 10 0 12 6 5 15 54 15 83 -1 29 -15 59 -6 51 16 -3 8 -2 13 3 10
5 -3 26 2 47 11 22 9 42 16 47 15 4 -1 7 3 7 8 0 6 9 10 21 10 11 0 17 4 14
10 -3 5 -1 10 5 10 6 0 8 5 5 10 -3 6 -1 10 5 10 7 0 9 7 6 16 -3 8 -2 12 4 9
6 -3 11 1 11 9 3 32 4 37 14 44 14 10 39 56 26 47 -6 -3 -11 -1 -11 4 0 6 8
11 18 11 11 0 19 7 19 18 0 20 -15 42 -30 42 -6 0 -3 -6 8 -13 14 -11 15 -16
5 -22 -9 -5 -11 -4 -6 3 4 7 1 12 -7 12 -7 0 -14 -7 -15 -15 -1 -8 -3 -22 -4
-30 -1 -8 -7 -15 -15 -15 -7 0 -12 -3 -12 -7 4 -22 -3 -33 -17 -33 -13 0 -14
-3 -5 -14 10 -12 8 -13 -11 -9 -13 3 -20 2 -16 -2 12 -12 -24 -34 -55 -35 -16
0 -26 -4 -22 -10 3 -5 1 -10 -4 -10 -6 0 -11 5 -11 11 0 8 -4 8 -12 2 -7 -6
-39 -10 -71 -11 -55 0 -92 -15 -82 -32 7 -12 -26 -17 -60 -9 -16 4 -26 7 -22
8 4 0 -1 11 -12 23 -13 13 -19 31 -17 45 6 32 44 83 62 83 8 0 13 -4 10 -9 -4
-5 2 -8 11 -6 11 1 17 9 15 19 -2 10 1 23 7 30 9 10 21 70 24 114 0 6 10 12
23 12 18 0 34 17 34 36 0 2 -16 4 -35 4 -28 0 -35 4 -35 19 0 11 7 27 16 35 9
9 17 23 18 30 3 20 49 110 59 114 4 2 7 12 7 23 0 10 4 19 10 19 5 0 12 11 16
24 3 14 11 23 17 20 7 -2 22 12 35 32 13 20 18 33 10 28 -9 -5 -8 -2 2 11 12
14 12 19 2 23 -9 3 -10 8 -2 16 5 7 11 25 12 40 1 14 6 26 11 26 4 0 5 5 2 10
-3 6 -1 10 5 10 6 0 9 4 6 9 -4 5 -2 11 4 13 6 2 12 13 14 24 7 35 44 101 73
131 34 33 91 35 125 4 27 -26 39 -26 66 -1 12 11 26 20 32 20 5 0 10 7 10 15
0 14 38 41 52 37 4 -1 5 5 1 14 -4 11 -8 12 -13 4 -4 -6 -28 -10 -58 -9 -28 1
-49 6 -46 11 3 4 -3 8 -12 8 -10 0 -15 3 -11 6 10 10 -20 34 -43 34 -12 0 -18
5 -15 10 3 6 -1 10 -9 10 -9 0 -16 4 -16 10 0 15 -23 7 -38 -12 -7 -10 -19
-18 -25 -18 -7 0 -19 -9 -27 -20 -8 -11 -20 -20 -27 -20 -7 0 -13 -4 -13 -10
0 -5 -9 -10 -19 -10 -11 0 -23 -4 -26 -10 -3 -5 -16 -10 -28 -10 -12 0 -31 -7
-41 -15 -11 -8 -16 -15 -12 -15 4 0 1 -7 -8 -15 -8 -8 -19 -15 -25 -15 -14 0
-23 34 -17 62 15 69 15 97 0 113 -9 9 -23 14 -31 11 -8 -3 -11 -1 -8 5 4 6 -8
9 -33 8 -27 -2 -45 3 -57 14 -9 10 -31 25 -48 34 -39 20 -57 38 -57 57 0 26
18 27 44 1 14 -14 31 -25 39 -25 15 0 37 41 37 70 0 10 5 22 10 25 6 3 10 11
10 16 0 6 -5 7 -12 3 -7 -4 -8 -3 -4 5 4 6 11 9 16 6 5 -3 15 3 22 15 7 11 16
20 20 20 5 0 27 18 49 40 23 22 46 40 51 40 5 0 6 5 3 10 -3 6 3 10 14 10 11
0 22 9 26 20 3 11 13 20 21 20 8 0 14 6 14 13 0 7 8 22 18 33 9 11 18 24 19
29 1 6 12 36 24 69 19 51 20 65 10 115 -6 31 -12 72 -15 91 -5 48 -23 90 -37
90 -7 0 -10 3 -6 6 5 5 -15 33 -50 69 -7 7 -9 15 -6 19 4 3 -3 6 -15 6 -12 0
-22 5 -22 10 0 6 -10 10 -22 10 -12 0 -19 3 -15 6 7 8 -17 34 -32 34 -6 0 -11
5 -11 10 0 6 -9 10 -20 10 -11 0 -20 4 -20 8 0 5 -9 19 -20 32 -11 13 -25 40
-30 62 -6 21 -15 38 -21 38 -6 0 -7 5 -4 10 3 6 -1 10 -9 10 -9 0 -16 5 -16
11 0 6 -23 9 -58 8 -64 -2 -65 -3 -91 -96 -6 -22 -25 -56 -41 -73 -19 -20 -30
-43 -30 -61 0 -16 -4 -29 -10 -29 -5 0 -10 -7 -10 -15 0 -17 -63 -85 -78 -85
-5 0 -16 8 -25 18 -12 13 -34 19 -75 21 -31 1 -58 6 -60 12 -2 5 -8 9 -14 9
-16 0 -39 28 -28 35 6 4 8 11 5 16 -4 5 -1 9 6 9 15 0 49 39 49 57 0 24 -29
48 -43 34 -6 -6 -26 -11 -45 -11 -24 0 -31 -3 -26 -12 6 -10 5 -10 -7 -2 -11
9 -17 9 -26 -1 -6 -7 -9 -16 -6 -19 4 -3 1 -6 -5 -6 -6 0 -14 -9 -17 -20 -6
-17 -14 -20 -51 -19 -24 2 -44 6 -44 11 0 4 -6 8 -13 8 -9 0 -14 16 -16 50 -2
53 -2 54 59 51 31 -2 103 23 93 32 -3 4 -1 7 5 7 7 0 12 4 12 8 0 14 -36 52
-49 52 -7 0 -9 5 -6 10 3 6 -1 10 -10 10 -9 0 -13 5 -10 11 5 7 -3 9 -21 7
-24 -2 -34 -13 -58 -61 -17 -33 -32 -53 -37 -46 -5 8 -8 8 -13 0 -4 -6 -21
-11 -37 -11 -18 0 -28 -4 -24 -10 3 -5 -3 -10 -14 -10 -14 0 -24 12 -36 50 -9
28 -20 50 -25 50 -5 0 -11 8 -13 18 -4 16 -5 16 -6 0 0 -10 -8 -18 -16 -18 -8
0 -18 0 -22 0 -5 0 -9 9 -9 20 -1 15 3 19 13 16 14 -6 43 15 43 30 0 3 10 15
22 25 11 11 18 19 15 19 -3 0 5 22 18 49 14 27 25 56 25 65 0 9 4 16 8 16 5 0
9 6 9 13 0 13 10 77 18 115 4 21 -6 62 -25 107 -5 11 -12 30 -15 43 -4 12 -11
22 -16 22 -6 0 -7 5 -4 10 3 6 1 10 -5 10 -6 0 -8 5 -5 10 3 6 2 10 -4 10 -5
0 -13 9 -16 20 -3 11 -13 20 -21 20 -8 0 -12 5 -9 10 4 6 -5 10 -21 10 -15 0
-24 3 -21 7 4 3 -2 12 -13 20 -11 8 -20 23 -20 34 0 14 7 19 29 19 16 0 31 6
34 14 3 9 15 12 31 9 14 -3 26 -1 26 5 0 5 12 10 26 10 15 0 30 5 34 12 4 7
12 10 18 6 9 -5 22 14 22 35 0 12 -63 12 -76 -1 -5 -5 -24 -10 -42 -12 -19 -1
-36 -6 -38 -10 -3 -4 -19 -8 -35 -8 -18 0 -28 -4 -24 -10 4 -6 -6 -10 -22 -10
-22 0 -25 -2 -13 -10 10 -7 -30 -10 -123 -10 -84 0 -136 -4 -132 -9 3 -6 -2
-9 -12 -7 -22 4 -136 -48 -126 -57 3 -4 -1 -7 -10 -7 -10 0 -17 -4 -17 -10 0
-5 -5 -10 -10 -10 -6 0 -23 -11 -38 -25 -15 -14 -22 -25 -17 -25 6 0 5 -4 -2
-8 -7 -4 -31 -46 -55 -92 -27 -54 -50 -86 -62 -88 -11 -3 -16 0 -12 7 4 6 0
11 -11 11 -24 0 -43 19 -43 42 0 10 -4 18 -10 18 -5 0 -10 8 -10 18 0 36 -34
62 -79 60 -22 -1 -41 -5 -41 -10 0 -5 -15 -9 -32 -8 -62 4 -76 0 -81 -20 -3
-11 -13 -20 -22 -20 -9 0 -13 -4 -10 -10 3 -5 -3 -10 -14 -10 -12 0 -21 -4
-21 -10 0 -5 16 -10 36 -10 19 0 33 -4 30 -8 -3 -5 1 -9 9 -9 8 0 12 3 10 7
-2 4 7 12 20 18 14 7 25 16 25 22 0 7 7 5 15 -4 25 -24 17 -86 -11 -86 -8 0
-14 -4 -14 -10 0 -5 -10 -10 -22 -10 -19 0 -20 2 -8 10 12 8 11 10 -8 10 -12
0 -30 4 -40 9 -9 5 -30 14 -45 20 -20 8 -27 16 -23 27 4 11 -1 18 -15 21 -16
4 -17 8 -7 14 9 6 7 9 -9 9 -13 0 -24 5 -24 10 -2 11 -5 25 -9 38 -1 4 -1 12
0 17 14 60 11 78 -16 102 -21 18 -28 34 -30 62 -1 21 -4 43 -8 49 -3 6 2 15
11 21 14 8 14 10 3 11 -9 0 -7 5 8 16 13 9 21 22 18 30 -3 8 0 11 10 7 8 -3
14 1 14 10 0 9 7 20 16 25 14 8 14 10 0 21 -14 11 -16 10 -16 -6z m1280 -119
c0 0 -10 -9 -22 -20 -22 -18 -22 -18 -8 0 14 18 13 18 -10 12 -18 -5 -21 -5
-11 3 12 7 51 12 51 5z m-4561 -1339 c1 13 8 21 20 22 13 1 19 -4 18 -17 -1
-10 -5 -16 -11 -13 -5 4 -7 -1 -3 -9 4 -13 -2 -16 -30 -16 -25 0 -32 3 -22 9
12 7 12 9 -1 10 -10 0 -11 2 -2 6 6 2 12 12 13 21 1 10 4 7 9 -8 7 -21 8 -22
9 -5z m792 -135 c139 -1 208 -5 218 -13 12 -10 13 -9 6 3 -7 12 -6 13 7 3 8
-7 18 -10 21 -6 4 3 7 1 7 -6 0 -7 3 -10 8 -8 4 3 7 -31 7 -74 0 -69 -2 -79
-18 -79 -18 0 -20 4 -32 55 -4 17 -10 24 -12 16 -5 -11 -7 -11 -14 0 -6 9 -9
-2 -10 -31 0 -40 -17 -103 -18 -72 -1 6 -5 12 -9 12 -11 0 -11 1 -17 -155 -3
-71 -8 -136 -10 -143 -3 -7 0 -45 5 -84 9 -64 8 -74 -10 -106 -20 -34 -20 -36
-4 -71 23 -48 25 -152 4 -168 -8 -7 -34 -13 -57 -13 -44 0 -48 4 -57 64 -1 11
-10 24 -19 31 -9 7 -14 15 -10 18 3 4 -1 7 -10 7 -21 0 -51 63 -45 95 4 20 1
25 -14 25 -11 0 -17 4 -14 9 4 5 1 11 -5 13 -8 3 -11 74 -11 231 0 141 -3 227
-9 227 -6 0 -7 5 -4 10 4 6 -6 10 -24 10 -16 0 -33 5 -36 10 -3 6 -12 10 -18
10 -7 0 -6 -4 3 -10 8 -5 11 -10 7 -10 -4 0 -18 7 -31 16 -22 14 -24 22 -24
100 0 67 3 84 14 84 10 0 12 5 8 13 -6 9 -5 9 7 0 11 -9 76 -13 220 -13z
m2544 -10 c3 -5 17 -10 30 -10 13 0 27 5 30 10 3 6 23 10 44 10 32 0 40 -4 45
-22 3 -13 6 -25 8 -28 4 -11 18 -88 24 -130 3 -25 8 -52 11 -60 3 -8 7 -40 9
-70 4 -46 10 -85 29 -205 1 -5 3 -12 4 -15 1 -3 4 -36 7 -75 3 -38 11 -73 17
-77 9 -5 8 -8 -3 -8 -12 0 -12 -2 -2 -9 8 -4 13 -11 13 -15 -4 -31 1 -66 9
-61 6 3 10 2 10 -4 0 -5 -6 -12 -12 -14 -7 -3 -3 -6 10 -6 20 -1 22 4 23 49 1
28 2 56 3 63 1 6 -3 18 -8 26 -8 11 -8 13 0 8 8 -5 11 53 12 211 0 119 1 232
1 250 l1 33 88 -5 c103 -5 162 -15 162 -27 0 -5 5 -9 11 -9 5 0 7 5 4 10 -3 6
1 10 10 10 9 0 14 4 11 8 -9 15 74 13 89 -1 8 -8 11 -17 8 -21 -4 -3 0 -6 7
-6 18 0 50 39 56 69 3 14 7 36 10 48 4 22 8 23 106 21 102 -1 127 -9 126 -39
-2 -40 4 -60 27 -84 14 -14 23 -25 20 -25 -4 0 0 -7 9 -15 17 -17 46 -20 46
-5 0 6 7 10 16 10 8 0 12 5 9 10 -3 6 1 10 9 10 9 0 16 4 16 9 0 8 10 11 93
27 17 4 35 12 39 18 5 7 8 7 8 1 0 -15 43 -16 52 -2 6 9 8 9 8 0 0 -9 16 -13
45 -13 25 0 45 -4 45 -10 0 -5 6 -10 14 -10 21 0 67 -26 59 -33 -3 -4 0 -7 8
-7 14 0 41 -49 46 -85 2 -11 5 -32 7 -48 2 -15 -2 -33 -9 -41 -8 -7 -12 -16
-9 -19 3 -2 -40 -5 -96 -6 -94 -2 -102 1 -99 25 0 4 -5 11 -13 15 -10 7 -11 9
0 9 16 0 12 39 -5 58 -18 19 -41 14 -45 -10 -5 -32 9 -92 22 -96 5 -2 8 -8 4
-13 -3 -5 3 -9 12 -9 10 0 15 -3 11 -6 -10 -10 20 -34 42 -34 11 0 23 -4 26
-10 3 -5 17 -10 31 -10 13 0 24 -4 24 -10 0 -5 9 -10 20 -10 11 0 20 -4 20
-10 0 -5 5 -10 11 -10 6 0 17 -7 25 -15 9 -8 12 -15 8 -15 -4 0 0 -8 8 -17 33
-38 41 -197 12 -241 -23 -36 -61 -72 -74 -72 -6 0 -8 -4 -5 -10 3 -5 -3 -10
-14 -10 -11 0 -23 -4 -26 -10 -9 -14 -187 -12 -236 3 -44 13 -93 53 -122 100
-11 17 -23 25 -30 20 -9 -5 -9 -3 -1 8 6 8 12 40 12 72 0 32 3 61 6 64 4 4 31
5 62 4 30 -1 61 2 67 7 18 15 47 -10 49 -42 1 -14 5 -26 9 -26 7 0 22 -39 20
-52 -1 -7 22 -12 42 -9 4 0 7 -4 7 -9 0 -6 6 -5 14 2 8 7 12 15 10 17 -2 2 4
11 14 20 18 17 26 51 11 51 -5 0 -9 6 -9 13 0 18 -37 47 -60 47 -11 0 -20 5
-20 10 0 6 -11 10 -25 10 -14 0 -35 9 -47 20 -12 11 -30 20 -40 20 -11 0 -16
5 -13 10 3 6 -1 10 -9 10 -9 0 -16 5 -16 10 0 6 -7 10 -16 10 -8 0 -12 5 -9
10 3 6 -1 10 -9 10 -9 0 -16 3 -17 8 0 4 -3 16 -6 27 -6 28 -14 92 -16 142 -2
39 -4 43 -28 43 -40 0 -47 -44 -49 -276 -1 -197 0 -204 19 -204 11 0 22 -9 26
-20 3 -11 12 -20 19 -20 10 0 12 -13 10 -46 -4 -50 -11 -67 -25 -59 -5 4 -9 2
-9 -3 0 -6 -27 -9 -60 -9 -33 1 -60 5 -60 10 0 4 -8 7 -17 6 -45 -4 -94 2 -88
11 3 6 -1 10 -9 10 -35 0 -45 61 -47 293 -1 150 -6 236 -14 260 -7 20 -11 37
-8 37 2 0 -2 6 -9 14 -9 10 -17 11 -25 4 -9 -7 -11 -4 -8 12 2 13 1 19 -3 16
-9 -10 -9 -12 -11 -102 -1 -70 -2 -75 -18 -63 -11 10 -14 10 -9 2 5 -10 -3
-13 -28 -13 -20 0 -36 -4 -36 -10 0 -5 -5 -9 -11 -7 -20 4 -29 -52 -33 -207
-3 -103 -8 -151 -17 -157 -7 -4 -12 -29 -12 -58 0 -44 -4 -52 -22 -57 -26 -6
-65 -2 -84 10 -9 6 -12 5 -8 -1 9 -15 -71 -15 -94 0 -14 9 -22 9 -27 1 -4 -7
-50 -12 -123 -13 l-117 -1 -7 27 c-8 28 -11 53 -14 106 -1 17 -7 27 -17 27 -8
0 -12 5 -9 10 10 15 -25 12 -41 -4 -8 -8 -14 -31 -14 -50 0 -20 -6 -54 -12
-76 l-13 -41 -115 3 -115 3 1 90 c1 50 4 104 7 120 17 79 27 145 31 200 2 33
6 67 9 75 6 15 11 57 23 170 3 30 9 73 14 95 6 22 12 65 14 95 7 92 5 90 111
90 52 0 97 -4 100 -10z m-1435 -144 c0 -6 5 -4 10 4 6 10 10 11 10 3 0 -9 17
-13 50 -13 28 0 50 -4 50 -10 0 -5 9 -10 19 -10 11 0 21 -3 23 -7 2 -5 17 -15
33 -25 17 -9 41 -35 54 -59 21 -36 25 -59 29 -166 3 -88 1 -123 -7 -123 -6 0
-11 -5 -11 -11 0 -5 5 -7 12 -3 6 4 8 3 5 -3 -3 -5 -22 -8 -41 -7 -20 2 -36 0
-36 -5 0 -4 12 -8 28 -8 60 -1 57 4 54 -93 -2 -49 -8 -90 -13 -90 -5 0 -9 -9
-9 -19 0 -11 -7 -27 -16 -35 -8 -9 -13 -16 -9 -16 4 0 0 -7 -9 -15 -8 -8 -20
-15 -27 -15 -7 0 -10 -3 -6 -6 10 -10 -20 -34 -42 -34 -11 0 -23 -5 -26 -10
-4 -7 -49 -10 -116 -9 -60 1 -106 5 -103 10 3 5 -6 9 -20 9 -14 0 -26 5 -26
10 0 6 -9 10 -21 10 -11 0 -17 5 -14 10 3 6 2 10 -3 10 -9 0 -13 16 -14 68 -1
17 -5 32 -9 32 -3 0 -17 24 -29 53 -20 44 -23 72 -25 186 -1 73 1 150 6 170 4
20 11 53 14 73 6 36 52 98 74 98 6 0 11 5 11 10 0 6 7 10 15 10 8 0 15 5 15
10 0 6 23 10 51 10 27 0 48 4 45 8 -3 5 1 9 9 9 8 0 15 -5 15 -11z m725 4 c-9
-14 8 -13 23 2 9 9 12 9 12 0 0 -7 10 -12 22 -12 12 0 18 -3 15 -6 -3 -4 6
-18 22 -33 64 -60 65 -64 66 -418 l1 -323 -53 0 c-28 0 -55 5 -58 10 -5 8 -12
7 -23 -2 -13 -11 -14 -11 -8 0 5 9 3 13 -5 11 -8 -1 -33 -1 -55 0 l-42 1 1
298 c0 164 -3 304 -7 310 -10 16 -43 15 -48 0 -7 -19 -3 -107 5 -114 4 -4 2
-13 -4 -20 -7 -8 -7 -14 1 -19 6 -3 7 -12 3 -18 -9 -15 -12 -47 -3 -47 3 0 6
-9 6 -19 0 -11 -4 -17 -8 -15 -10 7 -10 1 2 -30 5 -14 6 -26 2 -26 -4 0 -8
-29 -7 -65 0 -36 4 -65 9 -65 5 0 4 -6 -2 -13 -7 -8 -7 -18 -2 -27 5 -9 5 -20
-2 -28 -8 -8 -8 -16 -2 -20 9 -6 10 -20 4 -39 -4 -14 -7 -28 -8 -45 -2 -14
-15 -16 -92 -16 -55 1 -90 5 -90 12 0 6 -5 5 -12 -2 -15 -15 -32 -16 -23 -2 3
6 0 10 -8 10 -12 0 -14 21 -11 123 1 67 3 129 3 137 -3 111 0 378 4 420 3 30
6 60 6 67 1 13 81 14 81 1 0 -4 5 -8 11 -8 5 0 7 5 3 11 -5 8 -1 8 14 0 11 -6
37 -11 56 -11 20 0 36 -4 36 -10 0 -16 33 -12 78 10 22 11 48 20 56 20 8 0 18
5 21 10 3 6 8 10 11 10 3 0 2 -4 -1 -10z m-1205 -21 c0 -5 14 -9 30 -9 17 0
30 -4 30 -10 0 -5 8 -10 17 -10 9 0 14 -3 11 -6 -4 -3 6 -18 22 -32 25 -24 32
-41 44 -108 13 -65 9 -264 -4 -244 -6 9 -10 10 -10 3 0 -6 5 -15 10 -18 12 -8
13 -135 1 -135 -7 0 -15 -23 -25 -70 -6 -28 -42 -90 -53 -90 -7 0 -13 -4 -13
-10 0 -5 -9 -10 -21 -10 -11 0 -17 -4 -14 -10 5 -8 -31 -10 -109 -9 -64 1
-116 5 -116 10 0 5 -14 9 -31 9 -17 0 -28 4 -24 10 3 6 0 10 -8 10 -12 0 -36
20 -63 53 -26 32 -35 93 -38 269 -1 100 0 210 4 244 5 56 9 65 49 103 23 22
39 42 34 42 -16 2 73 21 132 27 71 8 145 4 145 -9z m-117 -845 c15 -3 27 -10
27 -15 0 -5 7 -9 16 -9 8 0 12 -4 9 -10 -3 -5 3 -10 14 -10 12 0 21 -4 21 -10
0 -5 10 -10 22 -10 12 0 18 -3 15 -7 -4 -3 0 -11 8 -17 8 -6 17 -22 19 -36 3
-14 5 -27 6 -30 1 -3 2 -13 1 -22 -1 -10 3 -27 9 -39 17 -31 16 -155 -1 -171
-8 -7 -41 -15 -74 -16 -33 -2 -62 -8 -64 -14 -2 -6 -7 -5 -12 3 -6 9 -12 10
-16 4 -12 -15 -33 -17 -33 -3 0 10 -2 10 -8 1 -10 -16 -41 8 -47 36 -5 25 13
71 28 71 6 0 8 3 4 6 -3 4 0 13 8 21 19 18 19 28 -1 47 -8 9 -13 16 -10 16 3
0 -6 11 -20 25 -27 27 -78 34 -87 13 -2 -7 -2 -39 0 -70 2 -35 0 -58 -6 -58
-6 0 -8 -6 -5 -13 4 -10 -3 -12 -26 -9 -16 2 -30 1 -30 -3 0 -13 30 -36 49
-38 14 -1 17 -5 10 -13 -7 -8 -6 -14 1 -19 12 -7 14 -325 2 -325 -4 0 -9 -12
-10 -27 -1 -15 -6 -29 -10 -32 -10 -8 -12 -61 -2 -61 4 0 10 -9 13 -20 4 -16
14 -20 50 -20 42 0 75 18 60 33 -3 4 -1 7 6 7 10 0 12 14 7 57 -3 31 -9 59
-14 62 -6 5 -9 106 -3 149 1 9 34 12 127 12 l126 0 -5 -92 c-3 -51 -8 -108
-12 -126 -9 -49 -34 -104 -44 -97 -5 2 -16 -6 -25 -20 -9 -14 -23 -25 -32 -25
-8 0 -12 -4 -9 -10 3 -6 -4 -10 -17 -10 -13 0 -29 -5 -34 -10 -14 -14 -238
-14 -242 0 -2 5 -12 10 -23 10 -10 0 -19 5 -19 10 0 6 -9 10 -21 10 -11 0 -17
5 -14 10 3 6 1 10 -5 10 -15 0 -60 46 -53 54 4 3 1 6 -6 6 -7 0 -9 5 -6 10 3
6 2 10 -2 10 -5 0 -9 10 -10 23 0 12 -4 54 -8 92 -4 39 -7 77 -6 85 1 8 2 52
2 98 1 55 6 87 15 96 7 8 10 17 6 22 -4 5 1 3 10 -5 15 -11 17 -10 15 8 -1 12
-7 21 -15 21 -8 0 -16 9 -19 20 -3 11 -8 20 -12 20 -4 0 -8 12 -9 27 -3 34 23
73 47 73 14 0 18 5 14 20 -3 11 -8 20 -12 20 -4 0 -7 18 -7 40 0 22 3 40 8 40
4 0 8 9 8 21 0 29 18 59 35 59 8 0 15 5 15 10 0 6 7 10 15 10 8 0 15 5 15 10
0 6 10 10 23 10 13 0 27 4 33 9 19 20 136 17 227 -5z m2940 -16 c17 -18 20
-54 7 -78 -8 -14 -8 -20 0 -20 7 0 5 -6 -4 -15 -8 -9 -22 -12 -32 -8 -11 4
-15 3 -11 -4 4 -6 1 -14 -5 -17 -7 -3 -4 -5 7 -5 34 2 49 -1 42 -7 -3 -4 -2
-15 4 -25 7 -14 6 -19 -2 -19 -8 0 -9 -4 0 -13 6 -8 8 -16 6 -19 -3 -3 -8 -26
-10 -52 -4 -33 -2 -46 7 -46 9 0 8 -3 -2 -10 -12 -8 -12 -10 -1 -10 11 0 11
-3 1 -15 -9 -11 -9 -15 -1 -15 8 0 9 -6 4 -17 -10 -23 -10 -84 0 -100 5 -8 3
-13 -3 -13 -6 0 -9 -3 -7 -7 3 -5 1 -17 -3 -28 -3 -10 -3 -39 2 -64 9 -52 3
-81 -18 -81 -8 0 -12 5 -9 10 4 6 -15 10 -50 10 -40 0 -54 3 -49 12 4 7 3 8
-5 4 -9 -6 -9 -11 0 -22 10 -12 3 -14 -41 -14 -41 0 -51 3 -47 14 4 11 1 13
-10 9 -12 -5 -15 -2 -10 9 3 9 -1 40 -8 69 -9 34 -12 78 -9 119 3 36 7 101 8
145 4 102 2 95 29 95 16 0 23 6 23 20 0 13 -7 20 -19 20 -10 0 -15 5 -12 10 3
6 2 10 -4 10 -6 0 -8 7 -5 15 4 8 11 12 18 8 6 -3 0 5 -14 19 -21 22 -25 34
-23 79 1 30 2 55 2 57 1 1 55 2 122 2 83 0 124 -4 132 -12z m330 0 c10 -27 5
-372 -6 -390 -8 -13 -8 -29 1 -63 17 -64 16 -95 -4 -95 -9 0 -25 10 -36 22
-15 17 -21 19 -27 9 -7 -10 -9 -10 -14 3 -3 8 -1 17 6 20 7 4 2 4 -10 2 -17
-3 -23 1 -23 14 0 24 -12 31 -30 18 -12 -8 -11 -9 4 -4 16 6 17 4 6 -9 -7 -8
-9 -15 -4 -15 5 0 23 -23 39 -50 17 -27 33 -50 36 -50 4 0 12 -13 19 -30 7
-16 16 -30 20 -30 3 0 7 -6 7 -12 0 -7 4 -21 8 -30 5 -14 2 -18 -15 -18 -14 0
-19 -4 -14 -12 5 -9 2 -8 -10 1 -13 11 -20 11 -28 3 -7 -7 -20 -12 -30 -12
-10 0 -18 -4 -18 -9 0 -5 -29 -9 -65 -9 -36 0 -62 4 -59 9 3 5 1 9 -4 9 -6 0
-8 9 -5 20 3 13 0 20 -8 20 -11 0 -11 2 1 10 12 8 14 34 12 157 -2 100 -7 150
-15 155 -9 6 -9 8 1 8 10 0 13 20 12 83 -1 45 -2 128 -1 185 l1 102 124 0 c90
0 125 -3 129 -12z m-2758 -139 c-3 -3 21 -7 53 -8 31 -2 62 -3 69 -4 7 0 10
-4 7 -9 -3 -4 3 -8 13 -8 10 0 24 -9 31 -20 7 -11 18 -20 26 -20 36 0 68 -104
70 -232 0 -48 5 -84 10 -80 5 3 6 -1 1 -8 -10 -16 -10 -114 0 -130 6 -9 4 -11
-5 -5 -10 6 -11 -3 -7 -39 3 -25 2 -46 -3 -46 -4 0 -11 -18 -15 -40 -4 -22
-16 -50 -27 -62 -11 -13 -16 -16 -12 -8 7 13 5 13 -9 1 -11 -9 -17 -10 -17 -2
0 6 -13 11 -30 11 -20 0 -30 -5 -30 -15 0 -8 -6 -12 -13 -9 -13 5 -15 -1 -19
-51 -2 -25 -3 -25 -99 -25 -65 0 -106 5 -125 14 -15 8 -32 12 -37 9 -6 -3 -7
-1 -3 5 5 8 -1 12 -15 12 -12 0 -19 3 -16 6 4 4 -3 15 -14 25 -11 9 -29 41
-40 71 -16 46 -19 78 -18 243 0 210 7 275 32 300 9 9 17 21 17 26 0 5 7 9 16
9 8 0 13 4 10 9 -4 5 7 15 24 23 16 7 30 16 30 20 0 5 7 8 16 8 8 0 12 5 9 10
-4 6 9 10 32 10 24 0 33 3 25 8 -8 5 3 8 27 8 22 0 38 -3 36 -7z m1365 1 c0
-5 7 -10 16 -10 8 0 22 -7 30 -15 9 -8 13 -15 10 -15 -3 0 5 -11 18 -25 13
-14 30 -25 37 -25 18 0 43 -38 45 -70 1 -14 2 -90 2 -170 1 -367 2 -442 8
-452 4 -7 2 -8 -4 -4 -7 4 -12 1 -12 -7 0 -10 -11 -15 -35 -15 -19 0 -35 5
-35 11 0 7 -4 7 -12 -1 -7 -7 -17 -12 -23 -12 -5 0 -3 5 5 10 13 8 12 10 -2
10 -10 0 -18 -6 -19 -12 0 -10 -2 -10 -6 0 -2 6 -13 12 -24 12 -10 0 -19 -6
-19 -12 0 -9 -3 -9 -9 1 -5 8 -18 12 -30 8 -12 -3 -21 0 -22 6 0 7 -2 131 -3
277 -4 341 -3 320 -23 320 -15 0 -16 2 -3 10 12 8 11 10 -7 10 -21 0 -43 -40
-43 -80 0 -10 -9 -29 -20 -42 -10 -14 -16 -29 -12 -33 4 -5 -1 -5 -10 -2 -12
4 -16 1 -13 -13 4 -18 11 -29 43 -65 9 -10 13 -59 13 -167 1 -84 5 -162 9
-174 9 -23 5 -31 -24 -54 -12 -9 -17 -10 -12 -2 4 6 3 12 -3 12 -5 0 -12 -4
-16 -9 -7 -12 -115 -12 -115 0 0 5 -5 9 -11 9 -5 0 -7 -6 -3 -12 6 -10 4 -10
-7 0 -7 6 -23 12 -35 12 l-22 0 -1 390 -1 390 124 0 c90 0 126 -3 129 -12 4
-10 7 -10 18 0 7 6 29 12 49 12 19 0 42 5 50 10 19 13 30 13 30 0z m436 1 c-3
-5 5 -8 19 -8 14 0 22 4 19 9 -4 6 3 5 14 -1 11 -6 41 -11 66 -11 25 0 46 -4
46 -10 0 -5 7 -10 15 -10 28 0 105 -58 105 -79 0 -5 7 -21 14 -37 8 -15 13
-31 10 -36 -3 -5 -1 -15 5 -22 28 -33 8 -138 -23 -118 -15 9 -56 10 -50 1 2
-4 -5 -7 -16 -6 -11 1 -20 5 -20 10 0 4 -6 5 -12 0 -22 -13 -80 -12 -94 2 -9
8 -14 36 -14 69 0 33 -4 56 -11 56 -5 0 -7 5 -4 10 3 6 0 10 -7 10 -9 0 -9 3
2 10 13 8 13 10 -1 10 -28 0 -48 -82 -26 -109 9 -12 9 -13 0 -7 -10 5 -13 -14
-13 -86 0 -51 0 -100 -1 -108 -2 -28 11 -172 17 -181 3 -5 15 -9 26 -9 12 0
19 3 15 6 -3 4 0 13 8 21 11 10 15 38 15 94 0 43 2 79 4 79 13 0 55 -28 49
-33 -3 -4 1 -7 10 -7 8 0 17 -3 19 -7 2 -5 30 -22 63 -40 l60 -32 -3 -43 c-3
-50 -20 -98 -35 -98 -6 0 -8 -3 -4 -6 6 -7 -17 -34 -29 -34 -3 0 -14 -8 -23
-18 -30 -33 -71 -43 -165 -41 -108 3 -133 13 -131 52 1 15 -3 27 -8 27 -6 0
-7 3 -4 7 9 8 -24 32 -45 33 -9 0 -18 -6 -21 -12 -3 -10 -7 -10 -19 0 -18 14
-41 151 -42 239 0 28 -4 49 -9 46 -5 -3 -4 4 2 16 9 16 9 21 -1 21 -9 0 -9 3
2 10 13 9 13 10 0 10 -13 0 -13 1 0 10 12 7 13 13 3 28 -9 15 -9 22 0 31 9 9
8 14 -3 21 -12 8 -12 10 -1 10 11 0 11 3 0 17 -9 10 -9 14 -2 10 9 -6 11 2 9
27 -1 20 2 34 8 33 6 -1 12 8 14 20 2 12 10 27 18 33 8 7 14 19 14 27 0 7 7
16 15 19 8 4 12 10 9 15 -3 5 2 9 10 9 9 0 16 5 16 10 0 6 9 10 20 10 11 0 20
5 20 10 0 6 13 10 29 10 17 0 33 5 36 10 3 6 8 10 11 10 3 0 3 -4 0 -9z
m-1313 -23 c48 -24 57 -28 76 -28 10 0 21 -6 23 -12 4 -12 0 -424 -4 -461 -2
-11 -8 -15 -18 -12 -8 4 -5 -3 7 -14 14 -13 20 -27 16 -38 -4 -10 -2 -14 4
-10 7 4 9 0 7 -10 -2 -10 0 -25 6 -33 8 -13 11 -13 26 2 16 16 17 45 15 323
l-2 305 120 0 121 0 0 -292 c1 -402 0 -490 -6 -500 -7 -12 -52 -10 -59 2 -5 8
-11 7 -21 -1 -11 -9 -14 -8 -14 2 0 10 -3 10 -12 1 -7 -7 -17 -12 -22 -12 -6
0 -4 5 4 10 12 7 10 9 -7 7 -12 0 -19 -5 -17 -9 3 -4 0 -8 -5 -8 -6 0 -11 5
-11 11 0 8 -5 8 -15 -1 -10 -9 -15 -9 -15 -1 0 6 -8 11 -18 11 -10 0 -23 5
-30 12 -9 9 -16 6 -31 -11 -17 -20 -28 -22 -100 -20 -44 1 -78 6 -75 10 3 5
-7 9 -21 9 -14 0 -24 4 -21 9 3 4 -1 17 -8 27 -10 13 -11 23 -4 31 5 6 13 24
17 40 6 23 3 33 -21 54 -30 29 -52 75 -39 83 12 8 11 116 -1 116 -5 0 -6 6 -1
13 11 17 11 67 0 67 -5 0 -4 6 2 14 8 10 9 16 1 21 -6 3 -7 12 -3 18 4 7 9 28
11 47 2 19 4 41 4 48 1 6 5 12 11 12 13 0 46 43 47 61 0 19 -28 53 -52 62 -21
8 -23 22 -5 42 15 18 108 20 140 3z m1988 -135 c-12 -20 -14 -14 -5 12 4 9 9
14 11 11 3 -2 0 -13 -6 -23z m-4851 -263 c0 -5 -4 -10 -10 -10 -5 0 -10 5 -10
10 0 6 5 10 10 10 6 0 10 -4 10 -10z m4705 -144 c8 -7 11 -16 8 -20 -4 -3 -1
-6 5 -6 7 0 12 6 13 13 0 6 4 2 9 -10 6 -16 18 -23 35 -23 15 0 24 -5 23 -12
-2 -7 3 -12 11 -10 11 2 12 0 4 -10 -11 -13 -14 -88 -4 -88 4 0 6 -14 7 -30 1
-28 -9 -36 -38 -31 -5 0 -8 -4 -8 -9 0 -5 -8 -10 -17 -10 -15 0 -16 2 -3 10
21 13 3 13 -22 -1 -11 -6 -18 -7 -15 -2 3 5 -4 10 -16 10 -17 2 -19 0 -7 -7
13 -9 13 -10 0 -10 -9 0 -22 6 -29 13 -10 8 -12 8 -7 0 4 -8 -1 -11 -14 -10
-11 1 -20 5 -20 10 0 5 -6 4 -14 -2 -24 -20 -63 21 -60 62 5 63 7 112 4 122
-9 28 13 45 59 45 25 0 53 5 61 10 19 12 19 12 35 -4z m105 -12 c0 -8 -19 -13
-24 -6 -3 5 1 9 9 9 8 0 15 -2 15 -3z m118 -134 c12 -11 28 -20 37 -20 8 0 15
-4 15 -10 0 -5 10 -10 23 -10 28 -1 57 -22 57 -44 0 -18 -35 -23 -45 -6 -3 6
-11 10 -16 10 -6 0 -7 -4 -4 -10 3 -5 1 -10 -4 -10 -6 0 -11 4 -11 8 0 5 -7 9
-15 9 -8 0 -12 -4 -9 -9 3 -4 -5 -8 -18 -8 -18 0 -20 2 -8 10 9 6 10 10 3 10
-6 0 -15 -4 -18 -10 -4 -6 -11 -5 -19 3 -8 6 -12 15 -10 19 2 3 -2 13 -10 21
-8 8 -12 18 -8 22 4 4 8 11 8 16 1 5 2 14 3 19 2 16 26 11 49 -10z m-2078
-530 c0 -5 5 -10 11 -10 16 0 39 -26 39 -44 0 -9 -5 -16 -11 -16 -5 0 -7 -4
-4 -10 3 -5 0 -10 -7 -10 -7 0 -19 -9 -26 -20 -7 -11 -8 -20 -2 -20 9 0 7 -59
-5 -110 -3 -14 -1 -45 5 -70 5 -25 11 -60 14 -79 3 -19 11 -38 18 -42 8 -6 9
-9 1 -9 -8 0 -7 -14 3 -52 7 -29 14 -62 14 -73 -1 -19 -1 -19 -14 -2 -7 9 -18
17 -25 17 -6 0 -11 3 -11 8 0 4 -12 20 -26 36 -15 15 -26 39 -26 52 0 13 -5
24 -10 24 -5 0 -6 5 -2 12 4 7 3 8 -4 4 -36 -22 -65 176 -38 252 10 28 13 50
7 60 -12 23 -7 78 9 97 14 17 90 21 90 5z m2305 -144 c24 -17 13 -46 -17 -46
-19 0 -20 2 -8 10 12 8 11 10 -7 10 -25 0 -26 1 -17 24 8 20 24 20 49 2z
m-235 -233 c8 -10 11 -15 6 -11 -4 4 -19 3 -33 -3 -17 -6 -22 -6 -17 2 3 6 0
15 -7 20 -11 7 -11 9 -1 9 7 0 10 5 6 11 -11 18 30 -7 46 -28z m-1886 -245 c7
-7 13 -16 14 -21 1 -4 9 -24 18 -45 17 -41 23 -61 31 -110 4 -27 -1 -37 -28
-63 -22 -20 -35 -27 -42 -20 -6 6 -10 47 -9 91 2 71 -1 83 -21 103 -12 12 -20
28 -19 35 2 8 -1 11 -6 8 -6 -3 -8 2 -5 14 6 23 47 28 67 8z m457 -221 c20
-16 18 -72 -5 -98 l-18 -22 -24 29 c-27 33 -28 43 -12 79 12 27 34 32 59 12z"/>
<path d="M5494 4871 c0 -11 4 -17 8 -15 4 3 8 12 8 20 0 8 -4 14 -8 14 -4 0
-8 -9 -8 -19z"/>
<path d="M4394 4778 c-4 -6 -3 -8 3 -5 6 4 14 0 17 -9 4 -10 2 -13 -6 -8 -7 4
-8 3 -4 -4 4 -7 2 -12 -3 -12 -6 0 -10 -3 -9 -7 1 -5 -2 -23 -6 -42 -6 -23
-11 -30 -16 -20 -7 10 -14 10 -35 1 -14 -7 -24 -16 -21 -21 4 -5 0 -12 -6 -15
-11 -5 -11 -7 0 -12 6 -3 10 -10 6 -15 -3 -5 2 -9 10 -9 9 0 16 -4 16 -10 0
-5 9 -10 21 -10 11 0 17 -4 14 -10 -4 -6 7 -10 25 -10 l31 0 -2 78 c-1 42 -7
81 -13 85 -8 6 -7 10 2 14 6 2 12 13 12 23 0 21 -26 34 -36 18z"/>
<path d="M4710 4301 c0 -6 4 -12 8 -15 5 -3 9 1 9 9 0 8 -4 15 -9 15 -4 0 -8
-4 -8 -9z"/>
<path d="M2989 4833 c-2 -13 -5 -27 -9 -40 -1 -5 -2 -11 -2 -14 1 -4 2 -23 4
-43 2 -28 6 -36 21 -36 10 0 15 5 12 10 -3 6 -1 10 4 10 14 0 14 90 1 110 -9
13 -10 13 -10 0 0 -13 -1 -13 -10 0 -7 10 -10 11 -11 3z"/>
<path d="M2910 4610 c0 -5 7 -10 16 -10 8 0 12 5 9 10 -3 6 -10 10 -16 10 -5
0 -9 -4 -9 -10z"/>
<path d="M2987 4572 c-2 -4 -5 -27 -5 -52 -1 -25 -3 -62 -5 -82 -1 -21 1 -38
4 -38 4 0 5 -9 2 -21 -5 -18 -2 -20 23 -17 27 3 29 6 31 48 1 25 2 47 3 50 1
3 1 17 0 31 -2 36 19 49 83 50 39 1 58 6 62 16 3 8 12 13 20 9 8 -3 17 -1 20
5 4 5 -6 8 -24 7 -16 -1 -27 -6 -25 -10 3 -4 -27 -8 -66 -8 -45 0 -69 -4 -65
-10 3 -5 1 -10 -4 -10 -6 0 -11 3 -11 8 0 11 -38 33 -43 24z"/>
<path d="M2399 4813 c-21 -39 -14 -93 12 -93 18 0 20 6 18 60 -1 33 -5 60 -8
60 -4 0 -13 -12 -22 -27z"/>
<path d="M2418 4562 c-24 -3 -28 -8 -29 -38 -1 -19 -2 -53 -3 -76 -3 -53 2
-68 21 -68 8 0 11 5 8 10 -4 6 -3 10 2 9 19 -3 33 2 33 12 0 5 -6 7 -12 3 -10
-6 -10 -4 0 7 6 7 12 17 12 22 0 4 -6 5 -12 1 -9 -5 -9 -2 1 9 11 14 11 17 0
17 -12 0 -12 2 0 9 9 6 11 18 7 35 -5 19 -3 26 9 26 18 0 20 16 3 22 -7 2 -25
2 -40 0z m9 -29 c-4 -3 -1 -13 6 -22 11 -14 10 -14 -5 -2 -16 12 -16 31 -1 31
4 0 3 -3 0 -7z"/>
<path d="M2530 4550 c0 -5 18 -9 40 -8 22 1 40 5 40 10 0 4 -18 8 -40 8 -22 0
-40 -4 -40 -10z"/>
<path d="M2427 4383 c-11 -10 -8 -20 6 -20 8 0 14 6 14 14 0 14 -10 17 -20 6z"/>
<path d="M5184 3991 c3 -5 -5 -11 -19 -13 -13 -3 -22 -1 -19 3 3 5 0 9 -5 9
-6 0 -11 -7 -11 -15 0 -11 12 -15 46 -15 33 0 43 3 38 13 -6 9 -4 9 7 1 18
-15 47 -14 53 1 3 8 -4 10 -21 7 -18 -3 -24 -1 -19 7 5 7 -3 11 -24 11 -17 0
-29 -4 -26 -9z"/>
<path d="M5255 3730 c3 -5 8 -10 11 -10 2 0 4 5 4 10 0 6 -5 10 -11 10 -5 0
-7 -4 -4 -10z"/>
<path d="M2880 3807 c-11 -64 -10 -120 1 -134 8 -9 9 -14 3 -10 -8 5 -12 -32
-13 -128 -1 -103 2 -135 11 -135 9 0 8 -3 -2 -10 -13 -9 -13 -10 0 -10 13 0
13 -1 0 -10 -13 -9 -13 -10 0 -10 13 0 13 -1 0 -10 -11 -7 -11 -10 -2 -10 7 0
11 -4 8 -8 -2 -4 3 -8 13 -8 10 0 18 6 18 13 0 7 -4 10 -9 7 -4 -3 -8 0 -8 5
0 6 8 11 18 12 11 0 12 2 4 6 -10 4 -10 8 -1 20 10 12 10 16 -2 24 -11 7 -10
9 6 9 15 0 17 2 6 9 -10 7 -10 10 -1 13 10 3 10 9 0 27 -7 14 -8 21 -1 17 7
-5 9 16 5 66 -3 40 -6 99 -6 131 0 40 -3 55 -11 50 -7 -4 -6 1 2 10 9 11 10
17 2 17 -6 0 -10 3 -10 8 3 18 -2 30 -16 36 -8 3 -15 4 -15 3z"/>
<path d="M4009 3750 c-3 -20 -4 -25 -12 -37 -4 -7 0 -16 11 -22 16 -9 18 -5
20 30 2 22 -2 39 -8 39 -5 0 -11 -4 -11 -10z"/>
<path d="M4560 3389 c-12 -9 -12 -10 4 -5 16 6 17 4 6 -9 -10 -12 -10 -15 4
-15 9 0 16 8 16 20 0 22 -8 25 -30 9z"/>
<path d="M5200 3398 c-12 -8 -12 -9 2 -5 9 3 19 1 22 -6 3 -9 5 -9 5 0 1 18
-13 23 -29 11z"/>
<path d="M3290 2589 c0 -5 5 -7 10 -4 6 3 10 8 10 11 0 2 -4 4 -10 4 -5 0 -10
-5 -10 -11z"/>
<path d="M3030 6630 c0 -5 -7 -10 -16 -10 -39 0 -65 -80 -33 -101 8 -5 10 -9
5 -9 -6 0 -1 -7 10 -15 24 -18 73 -19 96 -1 20 15 42 66 29 66 -5 0 -8 8 -7
17 3 19 -16 43 -33 43 -6 0 -11 5 -11 10 0 6 -9 10 -20 10 -11 0 -20 -4 -20
-10z"/>
<path d="M1485 6610 c-4 -6 1 -7 12 -3 15 6 16 4 6 -8 -10 -13 -10 -16 0 -16
6 0 18 -2 26 -4 7 -2 16 2 18 9 3 6 0 12 -7 12 -6 0 -8 -5 -4 -12 4 -7 3 -8
-5 -4 -9 6 -9 11 0 22 9 11 7 14 -14 14 -14 0 -29 -4 -32 -10z"/>
<path d="M2726 6368 c3 -4 -3 -8 -14 -8 -27 0 -42 -36 -45 -112 -3 -51 0 -68
10 -68 7 0 13 5 13 10 0 6 16 10 36 10 21 0 33 4 29 10 -4 6 7 10 24 10 17 0
31 4 31 9 0 5 7 16 15 24 13 14 18 45 13 90 -1 11 -10 17 -25 17 -12 0 -23 5
-23 10 0 6 -15 10 -34 8 -19 -1 -32 -6 -30 -10z"/>
<path d="M6194 6209 c-3 -5 -13 -9 -23 -9 -27 0 -61 -46 -61 -83 0 -17 -4 -38
-9 -46 -9 -14 7 -79 24 -97 6 -7 34 -14 61 -16 27 -3 58 -8 68 -13 15 -7 17
-5 11 6 -8 12 -6 12 8 0 14 -11 18 -11 23 3 3 9 10 14 15 11 4 -3 13 4 19 15
6 11 18 20 26 20 8 0 12 5 9 10 -3 6 -1 10 4 10 17 0 13 24 -8 47 -11 12 -17
24 -14 27 4 3 1 6 -5 6 -7 0 -12 6 -12 13 0 37 -120 122 -136 96z"/>
<path d="M1545 6170 c-3 -6 1 -7 9 -4 18 7 21 14 7 14 -6 0 -13 -4 -16 -10z"/>
<path d="M7096 6168 c3 -4 1 -8 -3 -8 -5 0 -9 -9 -10 -20 -1 -13 4 -20 16 -20
9 0 22 -5 28 -11 8 -8 13 -7 18 2 6 8 4 10 -5 4 -10 -6 -12 -4 -7 9 4 10 7 22
7 27 0 6 5 7 10 4 6 -4 7 -12 4 -18 -4 -7 -3 -8 1 -4 12 10 15 38 4 31 -5 -3
-9 0 -9 7 0 8 -5 7 -17 -2 -10 -8 -14 -9 -10 -2 5 8 1 11 -12 10 -11 0 -17 -5
-15 -9z"/>
<path d="M1610 6149 c0 -10 27 -19 34 -12 12 12 5 22 -14 20 -11 -1 -20 -4
-20 -8z"/>
<path d="M6915 6130 c-3 -5 -13 -10 -21 -10 -18 0 -85 -60 -79 -71 3 -4 1 -9
-5 -11 -5 -1 -13 -24 -16 -49 -7 -49 19 -129 41 -129 6 0 17 -9 25 -20 8 -11
22 -20 32 -20 9 0 20 -4 23 -10 3 -5 24 -10 46 -10 21 0 39 5 39 10 0 6 7 10
15 10 8 0 15 5 15 10 0 6 6 10 13 10 7 0 19 9 27 21 8 11 23 30 32 41 10 11
15 24 13 29 -3 4 -1 10 4 14 6 3 8 11 6 18 -8 23 -17 72 -18 104 -1 17 -6 35
-10 39 -4 5 -5 0 -1 -11 6 -16 5 -18 -7 -7 -16 14 -33 16 -24 2 3 -5 1 -10 -4
-10 -6 0 -11 7 -11 15 0 9 -12 18 -30 22 -16 3 -30 9 -30 14 0 12 -67 11 -75
-1z"/>
<path d="M1410 5972 c0 -7 -4 -10 -10 -7 -6 4 -7 -1 -3 -11 4 -10 2 -15 -4
-11 -5 3 -10 0 -10 -8 0 -8 7 -15 16 -15 14 0 14 -2 1 -10 -12 -7 -10 -9 7 -7
12 0 20 3 18 5 -2 3 0 14 6 24 9 16 7 24 -5 36 -11 12 -16 13 -16 4z m20 -22
c0 -5 -4 -10 -10 -10 -5 0 -10 5 -10 10 0 6 5 10 10 10 6 0 10 -4 10 -10z"/>
<path d="M1028 5698 c-26 -32 -10 -98 23 -98 42 0 59 71 25 105 -20 20 -28 19
-48 -7z"/>
<path d="M1515 5710 c3 -4 -2 -10 -10 -14 -18 -7 -20 -43 -2 -60 9 -9 17 -9
34 -1 13 7 20 15 16 18 -3 4 -1 7 5 7 7 0 12 9 12 21 0 11 -4 18 -9 15 -5 -4
-11 -1 -13 6 -2 6 -12 12 -21 14 -9 1 -15 -1 -12 -6z"/>
<path d="M1332 5585 c-33 -38 30 -89 66 -53 15 15 16 48 1 48 -5 0 -7 5 -4 10
10 16 -48 11 -63 -5z"/>
<path d="M1074 5534 c-7 -29 24 -63 38 -41 6 9 8 8 8 -1 0 -10 3 -10 15 2 16
15 20 46 7 46 -4 0 -14 -6 -22 -12 -8 -7 -6 -3 4 10 l19 22 -31 0 c-26 0 -33
-5 -38 -26z"/>
<path d="M6898 5523 c-9 -10 -13 -24 -11 -30 3 -7 0 -13 -6 -13 -7 0 -7 -8 -1
-26 16 -41 44 -73 63 -74 10 0 16 -4 13 -9 -12 -19 50 5 77 30 17 15 17 18 2
33 -9 9 -14 16 -10 16 4 0 0 7 -9 15 -8 8 -19 15 -25 15 -6 0 -11 5 -11 10 0
6 -7 10 -16 10 -8 0 -12 5 -9 10 4 6 -6 10 -22 10 -22 0 -25 2 -13 10 8 5 10
10 4 10 -6 0 -18 -8 -26 -17z"/>
<path d="M587 5433 c-2 -5 -2 -14 -1 -20 1 -7 2 -20 3 -29 0 -8 5 -13 10 -10
5 4 11 0 14 -6 3 -10 7 -10 20 1 21 17 22 51 1 51 -8 0 -12 5 -9 10 3 6 -3 10
-14 10 -11 0 -22 -3 -24 -7z"/>
<path d="M848 5406 c-22 -16 -23 -52 -3 -73 18 -17 45 -11 45 12 0 8 4 15 8
15 4 0 9 14 10 30 2 25 -1 30 -20 30 -13 0 -31 -7 -40 -14z m28 -8 c5 -7 3 -8
-6 -3 -10 6 -12 4 -7 -8 3 -9 1 -19 -5 -23 -7 -4 -8 -3 -4 4 4 7 2 12 -5 12
-8 0 -8 4 1 15 15 18 17 18 26 3z"/>
<path d="M221 5367 c-7 -17 -5 -23 10 -25 11 -2 17 -8 14 -13 -7 -10 15 -12
39 -3 18 7 10 34 -10 34 -8 0 -14 4 -14 9 0 21 -31 20 -39 -2z"/>
<path d="M7318 4776 c-15 -13 -24 -27 -21 -30 4 -3 0 -6 -8 -6 -8 0 -15 -8
-16 -18 -1 -13 7 -18 28 -20 18 -1 29 3 29 10 0 9 3 8 10 -2 9 -13 10 -13 11
0 0 8 2 23 4 33 3 18 -10 24 -18 7 -3 -6 -4 -5 -3 2 3 17 31 17 32 1 3 -30 4
-33 14 -33 5 0 6 7 3 17 -4 10 -2 14 4 10 12 -7 26 17 16 27 -4 3 -19 6 -35 6
-17 0 -27 4 -23 10 9 15 3 12 -27 -14z"/>
<path d="M7200 4555 c0 -2 6 -8 13 -14 10 -8 14 -7 14 2 0 8 -6 14 -14 14 -7
0 -13 -1 -13 -2z"/>
<path d="M7390 4530 c0 -5 -7 -10 -15 -10 -8 0 -15 -4 -15 -10 0 -5 -12 -10
-26 -10 -14 0 -23 -4 -19 -10 3 -6 -5 -10 -19 -10 -14 0 -28 -5 -32 -12 -4 -7
-3 -8 4 -4 8 5 10 2 6 -8 -4 -11 0 -16 11 -16 10 0 25 -8 34 -17 25 -27 82
-36 89 -13 2 5 8 8 13 4 11 -6 14 36 10 109 -1 18 -41 25 -41 7z"/>
<path d="M820 4438 c-11 -10 -18 -23 -15 -29 4 -5 2 -9 -4 -9 -5 0 -8 -6 -7
-12 3 -25 16 -36 36 -31 11 3 20 0 20 -6 0 -6 5 -11 11 -11 5 0 7 5 3 12 -4 7
-3 8 4 4 7 -4 22 0 34 8 12 9 17 16 10 16 -10 0 -10 5 -2 20 7 12 7 20 1 20
-5 0 -12 8 -16 19 -7 24 -48 24 -75 -1z"/>
<path d="M7080 4389 c-12 -8 -11 -9 5 -7 11 2 19 -2 18 -8 -1 -6 5 -11 13 -11
18 0 18 5 0 23 -17 17 -17 17 -36 3z"/>
<path d="M900 4350 c0 -5 5 -10 11 -10 5 0 7 5 4 10 -3 6 -8 10 -11 10 -2 0
-4 -4 -4 -10z"/>
<path d="M893 4314 c0 -6 6 -10 14 -7 9 4 11 0 7 -11 -3 -9 -1 -16 6 -16 6 0
9 4 5 9 -9 16 15 24 31 10 8 -6 17 -10 19 -7 10 9 -22 28 -52 32 -19 2 -30 -2
-30 -10z"/>
<path d="M6972 4308 c4 -9 2 -19 -5 -22 -9 -3 -8 -5 1 -5 7 -1 11 -5 8 -9 -3
-5 2 -9 10 -9 9 0 13 6 10 14 -3 8 -2 11 3 8 5 -3 13 0 17 6 4 7 3 9 -4 5 -6
-3 -18 2 -28 11 -16 16 -17 16 -12 1z"/>
<path d="M7014 4264 c3 -8 2 -12 -3 -9 -5 3 -12 1 -16 -5 -4 -6 7 -10 27 -10
25 0 29 3 18 10 -10 6 -11 10 -2 10 21 0 13 16 -9 17 -15 1 -19 -3 -15 -13z"/>
<path d="M675 4030 c3 -5 -3 -10 -14 -10 -14 0 -22 -8 -26 -27 -3 -16 -10 -40
-14 -56 -6 -16 -6 -25 0 -21 5 3 9 -1 9 -8 0 -8 3 -9 8 -3 4 6 18 19 32 30 19
15 22 16 11 3 -12 -16 -11 -18 13 -18 16 0 25 4 21 10 -3 6 3 10 13 10 11 0
22 9 25 20 3 11 1 20 -5 20 -5 0 -6 5 -2 12 4 7 3 8 -4 4 -7 -4 -12 -3 -12 2
0 5 -15 7 -32 5 -18 -2 -27 0 -20 3 15 7 16 34 1 34 -5 0 -7 -4 -4 -10z m39
-46 c23 -9 20 -20 -6 -21 -13 0 -17 1 -9 4 11 5 11 7 0 14 -16 10 -8 12 15 3z
m-54 -39 c-7 -8 -18 -15 -24 -15 -6 0 -3 5 7 11 9 5 17 18 18 27 0 11 2 12 6
4 3 -7 -1 -19 -7 -27z"/>
<path d="M303 3888 c0 -7 -4 -22 -9 -32 -6 -15 -4 -17 7 -11 12 8 12 6 0 -8
-12 -15 -11 -17 3 -17 9 0 16 -4 16 -9 0 -5 11 -8 25 -6 15 1 30 -4 36 -14 9
-14 10 -14 5 2 -3 11 -9 30 -12 43 -3 13 -14 24 -23 25 -11 0 -12 2 -3 6 10 4
10 8 1 19 -14 17 -45 18 -46 2z"/>
<path d="M600 3890 c-12 -7 -10 -9 7 -7 12 0 19 5 17 9 -6 10 -6 10 -24 -2z"/>
<path d="M7174 3865 c-4 -8 -11 -12 -17 -8 -6 3 -7 1 -3 -6 5 -8 31 -11 71
-10 52 2 64 5 68 21 5 16 -1 18 -54 18 -44 0 -61 -4 -65 -15z"/>
<path d="M480 3850 c-12 -7 -10 -9 7 -7 12 0 19 5 17 9 -6 10 -6 10 -24 -2z"/>
<path d="M646 3852 c-7 -12 12 -38 21 -29 4 5 1 12 -6 16 -11 7 -11 10 0 14 9
3 10 6 2 6 -6 1 -14 -3 -17 -7z"/>
<path d="M570 3701 c0 -11 -5 -21 -12 -23 -9 -3 -9 -6 0 -12 7 -4 12 -2 12 3
0 6 7 11 16 11 13 0 14 3 5 13 -6 8 -8 17 -4 20 3 4 1 7 -5 7 -7 0 -12 -9 -12
-19z"/>
<path d="M343 3625 c-6 -7 -10 -15 -7 -18 3 -3 -8 -11 -25 -18 -29 -13 -30
-14 -11 -31 12 -12 35 -18 62 -18 31 0 39 3 28 10 -12 8 -11 10 7 10 30 0 36
14 13 30 -10 8 -17 17 -14 22 3 4 -4 8 -15 8 -10 0 -21 4 -23 9 -1 5 -8 3 -15
-4z"/>
<path d="M308 3502 c-10 -2 -18 -8 -18 -13 0 -6 4 -8 8 -5 5 3 9 -2 9 -10 0
-8 -6 -13 -13 -10 -6 2 -14 -5 -17 -16 -4 -14 0 -22 14 -25 10 -3 16 -9 13
-14 -8 -14 50 -11 65 4 11 10 12 9 6 -2 -5 -9 -4 -12 3 -7 15 9 16 36 1 36 -5
0 -7 5 -4 10 3 6 -1 10 -10 10 -9 0 -13 5 -10 10 3 6 -1 10 -9 10 -8 0 -16 6
-18 13 -2 7 -11 11 -20 9z"/>
<path d="M7604 3487 c-36 -41 -40 -107 -7 -107 8 0 11 -4 8 -10 -4 -6 10 -10
35 -10 25 0 39 4 35 10 -3 6 1 10 10 10 9 0 13 5 10 10 -3 6 -1 10 5 10 19 0
7 62 -15 74 -11 6 -22 13 -25 16 -11 11 -46 9 -56 -3z"/>
<path d="M6720 3304 c8 -10 15 -20 16 -22 1 -2 4 1 7 5 3 5 -4 15 -16 23 -21
12 -21 12 -7 -6z"/>
<path d="M7530 3310 c0 -5 -9 -10 -19 -10 -14 0 -19 -6 -18 -20 1 -11 7 -20
15 -20 7 0 10 -4 7 -10 -3 -5 1 -10 10 -10 9 0 13 5 10 10 -3 6 -2 10 4 10 5
0 11 -6 14 -12 3 -8 9 -1 16 14 6 15 8 35 5 43 -7 17 -44 21 -44 5z"/>
<path d="M435 3070 c-3 -5 -3 -10 2 -10 4 0 1 -5 -7 -10 -12 -8 -10 -10 9 -10
18 0 21 3 12 13 -6 8 -8 17 -4 20 3 4 4 7 0 7 -3 0 -9 -4 -12 -10z"/>
<path d="M381 2924 c-21 -24 -5 -28 18 -5 12 12 16 21 9 21 -7 -1 -19 -8 -27
-16z"/>
<path d="M324 2766 c-9 -9 -8 -17 2 -31 12 -16 17 -17 39 -5 35 19 33 50 -2
50 -16 -1 -33 -7 -39 -14z"/>
<path d="M7036 2537 c3 -10 9 -15 12 -12 3 3 0 11 -7 18 -10 9 -11 8 -5 -6z"/>
<path d="M144 2526 c-6 -7 -17 -22 -23 -34 -22 -42 31 -68 81 -39 49 27 60 51
36 75 -16 16 -80 15 -94 -2z"/>
<path d="M2371 2495 c-1 -6 -15 -16 -31 -23 -17 -8 -28 -18 -24 -23 3 -5 0 -9
-5 -9 -6 0 -11 -7 -11 -15 0 -9 -7 -18 -15 -21 -29 -12 -15 -84 16 -84 10 0
19 -4 19 -10 0 -5 5 -10 11 -10 5 0 7 5 4 11 -4 6 3 5 15 -3 18 -10 24 -10 27
0 3 6 13 12 23 12 10 0 22 9 25 20 3 11 11 20 16 20 5 0 9 16 9 36 0 36 -18
64 -42 64 -10 0 -9 3 2 10 12 8 11 10 -7 10 -12 0 -24 6 -26 13 -3 6 -6 7 -6
2z"/>
<path d="M582 2425 c-7 -8 -10 -15 -7 -15 4 0 -1 -7 -10 -16 -12 -12 -13 -19
-4 -30 6 -8 8 -14 5 -14 -4 0 -1 -7 8 -15 23 -24 70 -18 100 11 14 15 26 30
26 35 0 19 -13 39 -27 39 -8 0 -11 5 -8 10 3 6 -5 10 -19 10 -13 0 -27 -6 -29
-12 -4 -10 -6 -10 -6 0 -1 16 -13 15 -29 -3z"/>
<path d="M5959 2383 c-13 -16 -12 -17 4 -4 16 13 21 21 13 21 -2 0 -10 -8 -17
-17z"/>
<path d="M5955 2350 c13 -20 16 -72 4 -65 -5 4 -9 -1 -9 -9 0 -21 16 -21 24 0
3 8 11 12 17 8 6 -3 3 5 -6 20 -10 15 -13 26 -6 26 6 0 11 -7 11 -15 0 -8 5
-15 10 -15 6 0 10 3 10 8 -1 10 -30 48 -30 38 0 -5 -8 -2 -17 5 -15 12 -16 12
-8 -1z"/>
<path d="M5833 2264 c0 -8 4 -14 9 -14 4 0 8 6 8 13 0 8 4 7 11 -3 8 -12 10
-12 7 -1 -5 19 -35 23 -35 5z"/>
<path d="M5923 2265 c-6 -7 -10 -15 -7 -18 2 -2 -2 -10 -11 -17 -13 -11 -15
-10 -10 1 4 11 -2 14 -22 13 -16 -1 -34 -3 -41 -3 -7 -1 -11 -5 -7 -11 3 -5
12 -7 19 -4 8 3 17 1 21 -5 4 -7 0 -8 -11 -4 -12 4 -15 3 -10 -6 6 -9 3 -9
-13 1 -18 11 -23 11 -31 -2 -9 -13 -10 -13 -11 0 -1 8 -1 19 0 23 1 5 -4 7
-11 4 -7 -2 -20 1 -28 8 -12 11 -18 10 -30 -3 -13 -14 -13 -15 1 -10 16 6 36
-6 59 -37 14 -18 14 -19 -2 -7 -14 12 -16 9 -13 -23 3 -28 1 -34 -9 -26 -14
12 -31 1 -30 -19 1 -8 2 -27 3 -41 0 -15 8 -30 17 -33 8 -3 12 -2 9 4 -3 6 -1
10 4 10 6 0 11 -5 11 -12 0 -9 3 -9 12 0 7 7 20 12 31 12 12 0 16 4 11 13 -5
7 0 6 11 -3 11 -9 16 -10 11 -2 -4 7 -1 12 9 12 9 0 13 -5 10 -10 -4 -6 5 -10
23 -8 22 1 28 6 24 17 -4 10 -1 13 9 9 10 -4 15 1 16 13 1 13 -5 19 -18 19
-11 0 -17 5 -14 10 5 9 -16 15 -38 11 -5 -1 -6 3 -2 9 4 6 1 17 -5 25 -10 12
-9 16 6 21 11 4 22 8 25 10 3 2 17 -3 32 -11 15 -8 36 -12 46 -10 14 2 18 -1
15 -10 -8 -19 10 -48 30 -51 9 -1 14 1 11 6 -3 5 1 15 9 23 8 8 12 17 9 21 -4
3 -1 6 6 6 7 0 9 5 6 11 -4 6 -29 9 -62 7 -48 -4 -53 -3 -37 9 10 7 13 13 5
13 -7 0 -10 3 -7 8 2 4 -1 17 -7 29 -10 17 -14 18 -24 8z m98 -98 c-6 -8 -8
-16 -5 -19 3 -3 0 -9 -7 -14 -8 -4 -10 -3 -5 4 4 7 2 12 -3 12 -6 0 -11 5 -11
11 0 5 4 8 9 4 5 -3 12 -1 16 5 3 5 9 10 12 10 3 0 0 -6 -6 -13z"/>
<path d="M1620 2251 c0 -7 -4 -10 -9 -6 -5 3 -13 0 -17 -6 -4 -8 -3 -9 4 -5 7
4 12 1 12 -6 0 -8 5 -6 11 5 6 10 8 21 5 24 -3 4 -6 1 -6 -6z"/>
<path d="M5723 2223 c-27 -10 -9 -64 22 -70 12 -2 11 55 -1 66 -5 5 -15 6 -21
4z"/>
<path d="M2839 2073 c0 -5 -2 -16 -4 -26 -2 -11 -1 -16 3 -13 8 8 14 46 7 46
-3 0 -5 -3 -6 -7z"/>
<path d="M4520 2069 c0 -5 -5 -7 -11 -3 -9 5 3 -28 16 -44 1 -1 2 11 3 28 0
16 -1 30 -4 30 -2 0 -4 -5 -4 -11z"/>
<path d="M5545 2070 c-4 -6 -1 -18 7 -27 12 -15 11 -15 -10 -4 -19 10 -23 9
-28 -4 -10 -26 10 -39 35 -23 13 8 21 23 21 40 0 28 -13 37 -25 18z m-10 -40
c3 -5 1 -10 -4 -10 -6 0 -11 5 -11 10 0 6 2 10 4 10 3 0 8 -4 11 -10z"/>
<path d="M993 2025 c0 -8 4 -15 9 -15 4 0 8 7 8 15 0 8 -4 15 -8 15 -5 0 -9
-7 -9 -15z"/>
<path d="M5070 1955 c0 -5 5 -17 10 -25 5 -8 10 -10 10 -5 0 6 -5 17 -10 25
-5 8 -10 11 -10 5z"/>
<path d="M1143 1825 c-13 -7 -20 -15 -16 -18 3 -4 -1 -7 -10 -7 -19 0 -31 -51
-25 -108 5 -39 35 -85 50 -76 5 3 7 0 6 -8 -2 -7 5 -12 14 -12 10 1 15 -2 12
-7 -3 -5 16 -9 41 -9 46 0 123 38 108 53 -3 4 -2 7 4 7 28 0 39 104 13 120
-11 7 -12 10 -2 10 10 0 10 3 -2 15 -8 8 -20 15 -27 15 -7 0 -9 3 -6 7 8 7
-38 33 -59 33 -8 0 -14 -6 -14 -12 0 -9 -2 -10 -8 -2 -9 15 -50 14 -79 -1z"/>
<path d="M5594 1792 c4 -7 2 -12 -4 -12 -6 0 -22 -11 -36 -25 -14 -14 -21 -25
-17 -25 4 0 -5 -7 -21 -15 -15 -8 -33 -15 -38 -15 -5 0 -16 -7 -25 -15 -8 -8
-19 -12 -25 -9 -6 4 -8 2 -4 -4 3 -6 -1 -18 -10 -26 -8 -9 -12 -16 -7 -16 4
-1 -2 -9 -15 -20 -13 -10 -23 -21 -22 -24 0 -4 0 -10 0 -16 0 -5 -22 -10 -50
-10 -35 0 -49 -4 -47 -12 1 -7 -4 -12 -10 -10 -7 1 -13 -2 -13 -8 0 -5 -5 -10
-11 -10 -7 0 -18 -8 -26 -17 -8 -10 -11 -12 -7 -4 5 10 3 12 -6 6 -10 -6 -9
-11 5 -22 11 -7 15 -13 9 -13 -5 0 -3 -4 4 -9 11 -7 11 -11 -2 -24 -19 -18
-21 -31 -4 -21 7 4 8 3 4 -4 -4 -7 -13 -12 -21 -12 -7 0 -12 -8 -11 -17 2 -13
13 -19 37 -21 36 -3 73 -18 101 -41 15 -13 57 -26 45 -15 -3 3 5 15 16 28 16
18 24 21 33 12 6 -6 10 -14 7 -18 -2 -5 3 -8 12 -8 9 0 13 -4 10 -10 -3 -5 1
-10 9 -10 9 0 16 9 16 20 0 11 5 20 10 20 6 0 10 5 10 12 0 16 49 58 67 58 8
0 11 5 7 12 -4 7 -3 8 4 4 17 -10 15 -26 -3 -26 -9 0 -15 -10 -16 -22 0 -13
-2 -31 -4 -41 -3 -15 3 -18 38 -15 38 3 42 5 38 28 -1 14 -6 27 -11 30 -28 19
-34 84 -11 129 5 9 6 22 3 30 -3 8 0 11 7 7 6 -4 11 -2 11 3 0 6 17 11 38 11
27 0 33 3 22 10 -12 8 -12 10 5 11 11 0 28 2 38 4 10 2 21 -3 24 -11 6 -16 98
-20 108 -4 4 7 13 6 26 -1 17 -9 21 -7 26 10 5 18 8 19 22 9 14 -11 14 -11 4
3 -7 9 -11 18 -8 21 3 3 -9 5 -27 6 -24 1 -28 -2 -18 -9 12 -7 11 -8 -5 -6
-11 2 -27 7 -35 11 -18 8 -49 4 -69 -8 -8 -5 -33 -10 -56 -10 -33 -1 -41 3
-42 17 -1 10 5 21 13 24 8 3 14 10 14 16 0 7 -4 7 -12 -1 -34 -34 -68 2 -66
69 1 18 -4 35 -10 37 -6 2 -9 9 -6 17 3 7 0 16 -7 21 -8 4 -10 3 -5 -4z m210
-194 c-3 -5 -10 -6 -15 -3 -5 4 -9 1 -9 -4 0 -6 -8 -11 -17 -11 -15 0 -15 1 1
13 21 15 48 18 40 5z"/>
<path d="M3482 1747 c1 -14 9 -24 19 -24 18 -2 21 27 4 39 -18 13 -25 9 -23
-15z"/>
<path d="M5737 1694 c-3 -3 -3 -13 0 -22 4 -10 2 -13 -5 -8 -6 3 -14 1 -18 -5
-4 -7 -3 -9 4 -5 5 3 12 0 15 -6 4 -10 7 -10 18 -1 19 19 20 43 1 36 -10 -4
-13 -2 -8 5 8 13 3 16 -7 6z"/>
<path d="M3533 1666 c-6 -8 -9 -17 -6 -20 4 -3 0 -6 -7 -6 -7 0 -11 -2 -8 -5
7 -7 -7 -71 -23 -111 -7 -16 -14 -40 -16 -54 -2 -13 -7 -27 -11 -30 -4 -3 -12
-19 -18 -36 -12 -32 1 -64 25 -64 6 0 11 -4 11 -10 0 -5 22 -10 48 -10 46 0
49 2 66 38 37 77 46 176 20 230 -10 20 -19 43 -20 50 -3 19 -24 42 -38 42 -6
-1 -16 -7 -23 -14z"/>
<path d="M3786 1671 c-3 -5 1 -11 9 -15 8 -3 12 -12 9 -21 -3 -8 -1 -15 6 -15
6 0 8 -4 5 -10 -3 -5 1 -10 10 -10 9 0 13 -4 10 -10 -3 -5 3 -10 15 -10 17 0
21 5 18 23 -2 12 -9 21 -16 19 -8 -1 -11 2 -7 7 9 15 -17 51 -37 51 -9 0 -19
-4 -22 -9z"/>
<path d="M6627 1540 c2 -9 11 -17 19 -17 9 0 11 4 4 12 -5 7 -8 14 -5 17 3 2
-1 5 -9 5 -7 0 -11 -7 -9 -17z"/>
<path d="M4403 1533 c-7 -2 -13 -21 -13 -40 0 -32 2 -34 17 -22 15 12 16 12 8
-1 -8 -13 -6 -13 8 -1 9 7 15 17 12 21 -3 5 0 12 6 16 8 4 9 3 5 -4 -4 -7 -2
-12 4 -12 7 0 9 7 6 16 -3 9 -6 20 -6 25 0 9 -26 11 -47 2z"/>
<path d="M5860 1408 c0 -4 -8 -8 -17 -8 -15 0 -16 -2 -3 -10 13 -8 12 -10 -2
-10 -10 0 -18 -5 -18 -11 0 -5 4 -8 9 -4 5 3 16 -2 24 -10 9 -8 25 -15 36 -15
12 0 21 -4 21 -10 0 -5 12 -10 26 -10 14 0 23 -4 19 -10 -3 -5 3 -10 15 -10
12 0 18 -4 15 -10 -3 -6 4 -10 16 -10 12 0 20 -3 16 -6 -9 -9 19 -34 38 -34 9
0 13 -4 10 -10 -9 -14 8 -12 24 3 11 10 13 10 7 0 -4 -7 -3 -13 2 -13 6 0 13
12 16 26 5 17 12 24 21 20 8 -3 14 0 12 7 -1 7 8 11 21 11 12 -1 22 3 22 8 0
6 -7 8 -15 5 -8 -4 -17 -1 -21 5 -4 6 -3 8 4 4 6 -3 13 -2 17 4 3 5 -1 10 -9
10 -14 0 -20 12 -17 33 0 4 -4 7 -10 7 -5 0 -7 5 -4 10 3 6 -1 10 -9 10 -9 0
-16 5 -16 10 0 6 -20 10 -44 10 -25 0 -48 -4 -51 -10 -3 -5 -12 -10 -18 -10
-7 0 -6 4 3 10 9 6 10 10 3 10 -6 0 -15 -4 -18 -10 -3 -6 -15 -1 -28 10 -15
14 -33 20 -59 18 -21 -1 -38 -6 -38 -10z"/>
<path d="M6193 1385 c0 -8 4 -12 9 -9 5 3 6 10 3 15 -9 13 -12 11 -12 -6z"/>
<path d="M5313 1205 c-7 -8 -13 -19 -13 -25 0 -6 -4 -8 -10 -5 -5 3 -10 1 -10
-4 0 -6 7 -11 15 -11 8 0 15 8 15 17 0 13 3 14 11 6 6 -6 18 -9 27 -6 9 4 13
2 9 -4 -3 -5 0 -10 7 -10 7 0 11 10 10 21 -1 12 -3 24 -3 29 -2 12 -45 7 -58
-8z"/>
<path d="M5389 1213 c-3 -22 4 -59 13 -68 8 -7 9 -6 4 3 -4 6 -2 12 5 12 8 0
7 5 -2 17 -10 11 -10 14 -1 9 6 -4 12 -2 12 3 0 6 -8 11 -17 11 -15 0 -16 2
-3 10 10 6 11 10 3 10 -7 0 -13 -3 -14 -7z"/>
<path d="M4993 1145 c-1 -19 3 -33 7 -30 5 3 12 1 15 -5 4 -6 3 -10 -2 -9 -29
5 -40 -17 -19 -38 4 -4 6 -1 4 7 -1 8 3 14 10 13 6 -2 12 0 13 5 0 4 2 17 3
29 2 13 -2 20 -8 16 -6 -3 -6 0 1 7 9 10 9 16 -2 26 -19 20 -21 18 -22 -21z"/>
<path d="M4975 1150 c-3 -5 -1 -10 4 -10 6 0 11 5 11 10 0 6 -2 10 -4 10 -3 0
-8 -4 -11 -10z"/>
<path d="M3590 1110 c0 -5 5 -10 11 -10 5 0 7 5 4 10 -3 6 -8 10 -11 10 -2 0
-4 -4 -4 -10z"/>
<path d="M5607 1072 c-3 -4 -2 -16 0 -27 2 -11 5 -25 5 -32 2 -20 36 -10 47
14 8 16 7 23 0 23 -6 0 -9 6 -6 13 5 14 -39 23 -46 9z"/>
</g>
</svg>
